<?xml version="1.0" standalone="no"?>
<!DOCTYPE svg PUBLIC "-//W3C//DTD SVG 20010904//EN"
 "http://www.w3.org/TR/2001/REC-SVG-20010904/DTD/svg10.dtd">
<svg version="1.0" xmlns="http://www.w3.org/2000/svg"
 width="16.000000pt" height="16.000000pt" viewBox="0 0 16.000000 16.000000"
 preserveAspectRatio="xMidYMid meet">
<metadata>
Created by potrace 1.11, written by Peter Selinger 2001-2013
</metadata>
<g transform="translate(0.000000,16.000000) scale(0.005333,-0.005333)"
fill="#000000" stroke="none">
<path d="M1572 2538 c5 -24 11 -56 14 -73 22 -135 24 -155 15 -178 -13 -34 25
-148 51 -155 10 -2 18 -8 18 -12 0 -9 -67 -25 -92 -22 -10 1 -18 -2 -18 -7 0
-4 -12 -21 -27 -35 -23 -23 -30 -45 -45 -129 -9 -56 -17 -139 -18 -183 0 -67
-4 -86 -21 -108 -18 -22 -28 -26 -76 -26 -54 0 -55 -1 -51 -25 4 -21 1 -26
-21 -31 -14 -4 -36 -15 -48 -26 -11 -11 -29 -18 -40 -16 -15 3 -11 11 25 49
33 36 42 54 42 81 0 33 -2 35 -27 30 -39 -7 -96 -56 -153 -133 -49 -65 -50
-68 -50 -135 0 -49 -3 -65 -11 -57 -6 6 -23 8 -45 3 -33 -8 -34 -7 -45 34 -12
42 -7 268 7 334 4 20 3 32 -4 32 -19 0 -34 -39 -32 -83 0 -23 1 -58 2 -77 0
-19 -4 -82 -9 -140 -8 -78 -7 -124 2 -180 15 -89 25 -117 65 -175 17 -24 30
-47 30 -52 0 -5 8 -16 18 -24 11 -9 33 -41 51 -72 20 -36 40 -57 56 -61 15 -4
22 -11 19 -19 -10 -26 128 -187 160 -187 4 0 20 -13 38 -30 17 -16 35 -30 39
-30 5 0 9 -9 9 -20 0 -15 11 -23 45 -32 63 -17 58 -47 -10 -64 -17 -4 -35 -10
-40 -15 -20 -15 -146 9 -211 41 -75 37 -111 79 -119 140 -10 75 -16 95 -23 83
-16 -25 -86 -73 -107 -73 -12 0 -28 -6 -34 -14 -7 -8 -31 -16 -54 -19 -23 -2
-64 -13 -92 -25 -27 -12 -67 -24 -87 -27 -21 -3 -38 -11 -38 -17 0 -33 229
-192 360 -249 50 -22 143 -54 208 -71 111 -30 126 -32 307 -32 181 0 196 2
309 32 189 50 368 140 494 247 l42 37 -23 18 c-12 10 -55 28 -94 40 -39 12
-79 30 -89 41 -11 12 -30 19 -53 19 -31 0 -44 8 -85 51 l-49 51 7 127 c6 119
9 130 42 196 60 116 76 177 81 315 5 101 10 133 27 165 42 81 20 235 -34 235
-21 0 -26 22 -34 182 -6 108 -28 186 -84 292 -77 147 -267 305 -368 306 l-31
0 9 -42z m-162 -968 c0 -5 -7 -10 -15 -10 -8 0 -15 5 -15 10 0 6 7 10 15 10 8
0 15 -4 15 -10z m-40 -140 c24 -15 -2 -32 -35 -24 -26 7 -27 8 -10 20 22 16
25 17 45 4z m-25 -50 c4 -6 12 -7 18 -3 6 4 25 6 42 5 39 -3 108 -9 118 -11 4
0 7 -12 7 -25 0 -24 -29 -43 -56 -38 -6 1 -17 -4 -23 -12 -7 -8 -18 -13 -24
-11 -7 2 -25 6 -42 10 -29 6 -30 6 -8 -9 12 -9 27 -14 35 -11 23 9 40 -10 33
-37 -7 -27 -21 -33 -116 -44 -28 -4 -49 -2 -53 5 -4 5 -13 8 -21 4 -9 -3 -15
1 -15 8 -1 8 -9 32 -20 54 -24 49 -26 85 -5 85 9 0 33 -9 55 -20 49 -25 53
-25 40 0 -16 30 18 78 35 50z"/>
<path d="M1202 2069 c-29 -5 -66 -16 -81 -24 -42 -21 -81 -72 -81 -105 0 -30
21 -53 28 -31 2 6 15 25 29 41 22 26 31 30 78 30 71 0 90 -21 45 -49 -27 -16
-29 -20 -14 -23 14 -3 3 -12 -36 -32 l-55 -28 30 32 30 33 -33 -19 c-29 -16
-62 -59 -62 -79 0 -3 31 -5 69 -5 72 0 92 -10 71 -35 -29 -35 68 -4 127 41 30
23 32 28 29 75 -2 27 -11 58 -20 68 -23 25 -20 33 12 30 34 -4 52 7 52 30 0
21 -23 43 -48 48 -59 9 -124 10 -170 2z"/>
</g>
</svg>
