<?xml version="1.0" encoding="utf-8"?>
<!-- Generator: Adobe Illustrator 21.0.2, SVG Export Plug-In . SVG Version: 6.00 Build 0)  -->
<svg version="1.1" id="Capa_1" xmlns="http://www.w3.org/2000/svg" xmlns:xlink="http://www.w3.org/1999/xlink" x="0px" y="0px"
	 viewBox="0 0 443.3 443.3" style="enable-background:new 0 0 443.3 443.3;" xml:space="preserve">
<style type="text/css">
	.st0{fill:#777777;}
</style>
<g>
	<path class="st0" d="M332.4,133.1v110.9h7.6l-11.4,19.6l-11.4-19.6h7.6V133.1h-7.6l11.4-19.6l11.4,19.6H332.4z M251,302.9v7.6h-96
		v-7.6l-19.6,11.4l19.6,11.4v-7.6h96.2v7.6l19.6-11.4l-19.6-11.4H251z M385.1,358.9c-0.9,1.2-1.7,2.2-2.6,3.3
		c-22.8,27.3-46.7,54-69.9,81.1H51.7V0h339.8c0,4.7,0,9.4,0,14.1c0,24.1,0,48.2,0,72.3c0,34.2,0,68.5,0,102.7c0,32.5,0,65.1,0,97.7
		c0,12,0,24,0,35.9C391.5,335.6,393.2,347.8,385.1,358.9z M354.5,354.9h-44.2v49.1L354.5,354.9z M369.4,22.2H73.9v399.1h214.2v-77.5
		c0-6.2,4.9-11.1,11.1-11.1h70.2l0,0L369.4,22.2L369.4,22.2z M205.1,103.3c0.5,0,1.2,0.2,1.6,0.2h125.6c2.2,0,3.8-1.6,3.8-3.8
		s-1.6-3.8-3.8-3.8H206.8c-1.9,0-3.6,1.6-3.6,4c0,0.9,0.5,1.9,0.9,2.4L205.1,103.3z M118.5,177.3H90.2l110.4-75.7L311,177.3h-30.3
		v96h52c2.2,0,3.8,1.6,3.8,3.8c0,2.2-1.6,3.8-3.8,3.8h-52v36.9c0,2.2-1.6,3.8-3.8,3.8s-3.8-1.6-3.8-3.8v-36.9h-14.7v-73.8h-36.9
		v73.8h-95.5v52c0,2.2-1.6,3.8-3.8,3.8s-3.8-1.6-3.8-3.8L118.5,177.3z M155,244h44.4v-36.9H155V244z"/>
</g>
</svg>
