<?xml version="1.0" encoding="utf-8"?>
<!-- Generator: Adobe Illustrator 21.0.2, SVG Export Plug-In . SVG Version: 6.00 Build 0)  -->
<svg version="1.1" id="Layer_1" xmlns="http://www.w3.org/2000/svg" xmlns:xlink="http://www.w3.org/1999/xlink" x="0px" y="0px"
	 viewBox="0 0 1108.6 65" style="enable-background:new 0 0 1108.6 65;" xml:space="preserve">
<style type="text/css">
	.st0{fill:#563D7C;}
	.st1{enable-background:new    ;}
	.st2{fill:#FFFFFF;}
	.st3{fill:#FFAE00;}
	.st4{fill:#EC6C00;}
	.st5{fill:#FFEFB4;}
	.st6{fill:#FED305;}
</style>
<g>
	
		<image style="overflow:visible;" width="600" height="600" id="html5" xlink:href="html5.png"  transform="matrix(0.1083 0 0 0.1083 -1.6421 -2.526602e-02)">
	</image>
	
		<image style="overflow:visible;" width="600" height="600" id="css3" xlink:href="css3.png"  transform="matrix(0.1083 0 0 0.1083 63.3579 -2.526602e-02)">
	</image>
	
		<image style="overflow:visible;" width="600" height="600" id="javascript" xlink:href="javascript.png"  transform="matrix(0.1083 0 0 0.1083 128.3579 -2.526602e-02)">
	</image>
	
		<image style="overflow:visible;" width="600" height="600" id="jQuery" xlink:href="jQuery.png"  transform="matrix(0.1083 0 0 0.1083 193.3579 -2.526602e-02)">
	</image>
	<g id="bootstrap">
		
			<g id="solid_1_" inkscape:version="0.48.1 r9760" sodipodi:docname="twitter_bootstrap_logo.svg" xmlns:cc="http://creativecommons.org/ns#" xmlns:dc="http://purl.org/dc/elements/1.1/" xmlns:inkscape="http://www.inkscape.org/namespaces/inkscape" xmlns:rdf="http://www.w3.org/1999/02/22-rdf-syntax-ns#" xmlns:sodipodi="http://sodipodi.sourceforge.net/DTD/sodipodi-0.dtd" xmlns:svg="http://www.w3.org/2000/svg">
			<path id="bg_1_" class="st0" d="M323.4,54.1c0,6-4.9,10.8-10.8,10.8h-43.3c-6,0-10.8-4.9-10.8-10.8V10.8c0-6,4.9-10.8,10.8-10.8
				h43.3c6,0,10.8,4.9,10.8,10.8V54.1z"/>
			<g id="B_1_" class="st1">
				<path class="st2" d="M276,14.1h18.4c3.4,0,6.1,0.8,8.2,2.3s3.1,3.9,3.1,7.1c0,1.9-0.5,3.5-1.4,4.9c-0.9,1.4-2.3,2.4-4,3.2v0.1
					c2.3,0.5,4.1,1.6,5.3,3.3c1.2,1.7,1.8,3.9,1.8,6.5c0,1.5-0.3,2.9-0.8,4.2c-0.5,1.3-1.4,2.4-2.5,3.3c-1.1,0.9-2.6,1.7-4.4,2.2
					c-1.8,0.6-3.9,0.8-6.3,0.8H276V14.1L276,14.1z M282.7,30h10.8c1.6,0,2.9-0.4,4-1.4c1.1-0.9,1.6-2.2,1.6-3.9c0-1.9-0.5-3.3-1.4-4
					c-1-0.8-2.3-1.2-4.1-1.2h-10.8V30L282.7,30z M282.7,46.6h11.7c2,0,3.6-0.5,4.7-1.6c1.1-1,1.7-2.5,1.7-4.4c0-1.9-0.6-3.3-1.7-4.3
					c-1.1-1-2.7-1.5-4.7-1.5h-11.7V46.6z"/>
			</g>
		</g>
	</g>
	
		<image style="overflow:visible;" width="600" height="600" id="php" xlink:href="php.png"  transform="matrix(0.1083 0 0 0.1083 323.3579 -2.526602e-02)">
	</image>
	
		<image style="overflow:visible;" width="600" height="600" id="wordpress" xlink:href="wordpress.png"  transform="matrix(0.1083 0 0 0.1083 388.3579 -2.526602e-02)">
	</image>
	
		<image style="overflow:visible;" width="600" height="600" id="responsive_design" xlink:href="responsive-design.png"  transform="matrix(0.1083 0 0 0.1083 453.3579 -2.526602e-02)">
	</image>
	
		<image style="overflow:visible;" width="600" height="600" xlink:href="photoshop.png"  transform="matrix(0.1083 0 0 0.1083 518.3579 -2.526602e-02)">
	</image>
	
		<image style="overflow:visible;" width="600" height="600" xlink:href="illustrator.png"  transform="matrix(0.1083 0 0 0.1083 583.3579 -2.526602e-02)">
	</image>
	
		<image style="overflow:visible;" width="600" height="600" xlink:href="indesign.png"  transform="matrix(0.1083 0 0 0.1083 648.3579 -2.526602e-02)">
	</image>
	<g>
		<title>Group</title>
		<desc>Created with Sketch.</desc>
		<g id="Page-1_1_">
			<g id="Sketch-Flat-Logo_1_" transform="translate(-9.000000, -28.000000)">
				<g id="Group_1_" transform="translate(9.000000, 28.000000)">
					<g id="Base_1_">
						<polygon id="Polygon_15_" class="st3" points="749.3,65 713.4,23.3 728.9,2.2 749.3,0 769.6,2.2 785.2,23.3 						"/>
					</g>
					<g id="Bottom-Back_1_" transform="translate(0.000000, 160.000000)">
						<polygon id="Polygon_14_" class="st4" points="749.3,-95 713.4,-136.7 785.2,-136.7 						"/>
					</g>
					<g id="Bottom-Mid_1_" transform="translate(100.000000, 160.000000)">
						<polygon id="Polygon_13_" class="st3" points="649.3,-95 627.9,-136.7 670.7,-136.7 						"/>
					</g>
					<g id="Top-Mid_1_" transform="translate(100.000000, 0.000000)">
						<polygon id="Polygon_12_" class="st5" points="649.3,0 627.9,23.3 670.7,23.3 						"/>
					</g>
					<g id="Top-Side-Left_1_" transform="translate(0.000000, 15.000000)">
						<polygon id="Polygon_11_" class="st3" points="728.9,-12.8 720.9,-2.2 713.4,8.3 728,8.3 						"/>
					</g>
					
						<g id="Top-Side-Right_1_" transform="translate(440.500000, 87.500000) scale(-1, 1) translate(-440.500000, -87.500000) translate(387.000000, 15.000000)">
						<polygon id="Polygon_10_" class="st3" points="-275.6,-12.8 -283.6,-2.2 -291.2,8.3 -276.5,8.3 						"/>
					</g>
					<g id="Top-Left_1_" transform="translate(100.000000, 0.000000)">
						<polygon id="Polygon_9_" class="st6" points="628.9,2.2 627.9,23.3 649.3,0 						"/>
					</g>
					<g id="Top-Right_1_" transform="translate(247.000000, 0.000000)">
						<polygon id="Polygon_8_" class="st6" points="522.6,2.2 523.7,23.3 502.3,0 						"/>
					</g>
				</g>
			</g>
		</g>
	</g>
	
		<image style="overflow:visible;" width="600" height="600" xlink:href="balsamic.png"  transform="matrix(0.1083 0 0 0.1083 785.1924 -2.526602e-02)">
	</image>
	
		<image style="overflow:visible;" width="600" height="600" xlink:href="word.png"  transform="matrix(0.1083 0 0 0.1083 850.1924 -2.526602e-02)">
	</image>
	
		<image style="overflow:visible;" width="600" height="600" xlink:href="powerpoint.png"  transform="matrix(0.1083 0 0 0.1083 915.1924 -2.526602e-02)">
	</image>
	
		<image style="overflow:visible;" width="600" height="600" xlink:href="pages.png"  transform="matrix(0.1083 0 0 0.1083 980.1924 -2.526602e-02)">
	</image>
	
		<image style="overflow:visible;" width="600" height="600" xlink:href="keynote.png"  transform="matrix(0.1083 0 0 0.1083 1045.1924 -2.526602e-02)">
	</image>
</g>
</svg>
