<svg xmlns="http://www.w3.org/2000/svg" viewBox="0 0 885.81 701.68"><defs><style>.cls-1,.cls-4,.cls-5{fill:#fff;}.cls-1,.cls-2,.cls-4,.cls-7{stroke:#787878;stroke-miterlimit:10;}.cls-1,.cls-2{stroke-width:11.32px;}.cls-2,.cls-3,.cls-7{fill:#fbac43;}.cls-4{stroke-width:11.2px;}.cls-6{fill:#787878;}.cls-7{stroke-width:5px;}.cls-8{fill:#fbac44;}</style></defs><title>Asset 8seal</title><g id="Layer_2" data-name="Layer 2"><g id="Layer_3" data-name="Layer 3"><circle class="cls-1" cx="442.91" cy="350.84" r="345.18"/><circle class="cls-2" cx="442.91" cy="350.6" r="253.72"/><path class="cls-3" d="M205.5,188.52c9.38,5.75,11.12,14.07,5.34,23.5a19.07,19.07,0,0,1-11.34,8.23l-7-9s5.31-1.39,7-4.13c1.89-3.09,1.42-6.61-3.38-9.55l-31.48-19.32,6.6-10.75Z"/><path class="cls-3" d="M235.3,144.63c10.59,8.92,11.15,19.22,2.07,30s-19.32,12-29.92,3.05l-27.63-23.27,8.13-9.65,24.77,20.87c7.17,6,11.06,5.63,15,.91s3.72-8.63-3.45-14.66L199.55,131l8.13-9.65Z"/><path class="cls-3" d="M258.67,135.56l14.46-12.41,7.3,8.5-24,20.63-36.49-42.52,9.57-8.22Z"/><path class="cls-3" d="M296.95,120.61l-10.43,7.1L255,81.41l10.43-7.1Z"/><path class="cls-3" d="M301.82,52.65c13.84-6.67,30.57-.71,37.67,14S341.35,98,327,104.95c-14.75,7.11-30.66.68-37.76-14.06S288.1,59.26,301.82,52.65Zm19.84,41.17c9.07-4.37,9.19-13.7,5.56-21.22S316,59.47,307.16,63.72,297.91,77.45,301.53,85,312.35,98.3,321.66,93.81Z"/><path class="cls-3" d="M392.16,24.46c15.18-2.38,29.47,8.15,32,24.32s-7.29,30.56-23,33c-16.17,2.54-29.55-8.21-32.09-24.38S377.11,26.83,392.16,24.46Zm7.1,45.15C409.2,68,412,59.15,410.71,50.9s-7-15.81-16.65-14.29-12.82,10.47-11.53,18.72S389,71.21,399.25,69.61Z"/><path class="cls-3" d="M449.87,70.71A7.68,7.68,0,1,1,442,63,7.71,7.71,0,0,1,449.87,70.71Z"/><path class="cls-3" d="M527.84,89.72,514.6,86.83,513,75,492.4,70.52,486,80.6l-13.24-2.89,33.77-50L518,30.22ZM508.62,45.91l-.13,0L499,60.49l12.19,2.66Z"/><path class="cls-3" d="M576.13,62l-17.65-7.2-4.21,10.31L571.18,72l-4.23,10.37L550,75.47,545.79,85.9l17.65,7.2-4.23,10.37-29.33-12L551,39.64l29.33,12Z"/><path class="cls-3" d="M576.84,113.07l-10.67-6.74L596.09,59l10.67,6.74,0,41.15.11.07,18.57-29.39,10.67,6.74-29.92,47.36-10.67-6.74,0-41.15-.11-.07Z"/><path class="cls-3" d="M629.29,137.45l14.13,12.79-7.52,8.31L612.42,137.3,650,95.76l9.35,8.47Z"/><path class="cls-3" d="M657.27,166.13l12.2,14.64-8.61,7.17-20.28-24.33,43-35.87,8.08,9.69Z"/><path class="cls-3" d="M719.57,197l-10-16.22-9.48,5.85,9.59,15.53L700.14,208l-9.59-15.53L681,198.42l10,16.22-9.53,5.89L664.8,193.57l47.67-29.43,16.63,26.95Z"/><rect class="cls-4" x="5.6" y="257.76" width="874.61" height="184.89"/><circle class="cls-1" cx="442.91" cy="350.63" r="171.62"/><path class="cls-5" d="M292.91,212.68l.08-.11-14.69-17.41,3.93-5,20.93,26L299.43,221l-20.58-8.55-.08.11L292,230.46l-3.73,4.77-30.31-14.07,3.94-5,20.42,10.06.1-.09-13.79-18.55,3-3.78Z"/><path class="cls-5" d="M315.32,185l-10,9,6.22,6.88,11.68-10.57,3.37,3.73L310.09,209l-21.83-24.13L304.75,170l3.37,3.73-11.65,10.54,5.49,6.06,10-9Z"/><path class="cls-5" d="M328.94,192.28l-18.19-27,9.12-6.14q4.76-3.21,8.68-3.16a7.6,7.6,0,0,1,6.4,3.74,7.06,7.06,0,0,1,1.26,4,7.22,7.22,0,0,1-1.39,4.16,6.91,6.91,0,0,1,5.14-.23,8,8,0,0,1,3.87,3.13q2.61,3.87,1.4,7.59t-5.9,6.87ZM323.78,173l3.89-2.62a6.53,6.53,0,0,0,2.74-3.14,3.69,3.69,0,0,0-.58-3.38,3.91,3.91,0,0,0-3-2,7,7,0,0,0-4.11,1.48l-3.71,2.5Zm2.52,3.74,5.23,7.76,5-3.36a6.07,6.07,0,0,0,2.65-3.14,4.07,4.07,0,0,0-.73-3.53,5.19,5.19,0,0,0-3-2.37,4.76,4.76,0,0,0-3.74,1Z"/><path class="cls-5" d="M362.27,171.79l-12.11-30.19,10.37-4.16a13.43,13.43,0,0,1,10.54-.13,13.14,13.14,0,0,1,7.23,7.63l2,5a13.09,13.09,0,0,1,.05,10.51,13.46,13.46,0,0,1-7.71,7.18Zm-4.19-28,8.37,20.86,4-1.61a6.79,6.79,0,0,0,4.22-4.24,9.29,9.29,0,0,0-.46-6.48l-2-5a9.22,9.22,0,0,0-4.13-5,6.8,6.8,0,0,0-6-.15Z"/><path class="cls-5" d="M405.33,142.92l-13.1,3.15,2.17,9,15.32-3.68,1.18,4.89-21.66,5.21-7.61-31.63,21.62-5.2,1.18,4.89-15.27,3.67,1.91,8,13.1-3.15Z"/><path class="cls-5" d="M430.49,145.77a3.78,3.78,0,0,0-1.61-2.88,13.46,13.46,0,0,0-4.84-1.7,26.53,26.53,0,0,1-9.12-3.14,7.53,7.53,0,0,1-3.55-6,7.81,7.81,0,0,1,2.78-6.83,14.2,14.2,0,0,1,8.43-3.34,13.08,13.08,0,0,1,9,2,8.53,8.53,0,0,1,3.91,6.69l0,.14-6.3.59a4.75,4.75,0,0,0-1.84-3.5,6,6,0,0,0-4.35-1,6.26,6.26,0,0,0-3.92,1.54,3.66,3.66,0,0,0-1.15,3.09,3.19,3.19,0,0,0,1.78,2.56,21.15,21.15,0,0,0,5.47,1.74,20.52,20.52,0,0,1,8.49,3.18,8.22,8.22,0,0,1,3.36,6.17,7.73,7.73,0,0,1-2.67,6.87,14.4,14.4,0,0,1-8.44,3.22,15.89,15.89,0,0,1-9.49-1.86,8.55,8.55,0,0,1-4.54-7.28l0-.14,6.32-.59a5,5,0,0,0,2.17,4.07,8,8,0,0,0,5.05.88,6.52,6.52,0,0,0,3.95-1.47A3.52,3.52,0,0,0,430.49,145.77Z"/><path class="cls-5" d="M448.8,154l-6.52-.11.53-32.53,6.52.11Z"/><path class="cls-5" d="M479.85,152.65a12.29,12.29,0,0,1-4.92,2.82A17.7,17.7,0,0,1,467,156a13.31,13.31,0,0,1-9.2-4.91,12.9,12.9,0,0,1-2.53-10l.86-6.74a13.19,13.19,0,0,1,4.81-9.09,12.49,12.49,0,0,1,9.75-2.51q5.9.75,8.67,4a10,10,0,0,1,2.25,8l-.06.13-6.1-.77a6.26,6.26,0,0,0-1.12-4.28,5.76,5.76,0,0,0-4.09-2,5.86,5.86,0,0,0-5.08,1.68,9.28,9.28,0,0,0-2.57,5.67l-.86,6.78a9.16,9.16,0,0,0,1.13,6.21,6.28,6.28,0,0,0,4.78,2.94,11.73,11.73,0,0,0,3.69,0,5.55,5.55,0,0,0,2.23-.88l.76-6-5.72-.73.57-4.48,12.19,1.55Z"/><path class="cls-5" d="M508.8,165.42l-6.23-1.85-6.26-25.05-.13,0-6.33,21.29-6.25-1.86,9.26-31.19,6.26,1.86,6.27,25,.13,0,6.32-21.27,6.23,1.85Z"/><path class="cls-5" d="M531.66,156.06a4.92,4.92,0,0,1,3-2.6,5.24,5.24,0,0,1,4.07.48,5.36,5.36,0,0,1,2.83,3,4.91,4.91,0,0,1-.39,3.93l-.92,1.79a4.82,4.82,0,0,1-2.95,2.58,6.11,6.11,0,0,1-6.9-3.55,4.81,4.81,0,0,1,.36-3.89Z"/><path class="cls-5" d="M565.77,188.82a3.78,3.78,0,0,0,.76-3.21,13.43,13.43,0,0,0-2.41-4.53,26.51,26.51,0,0,1-4.59-8.48,7.53,7.53,0,0,1,1.44-6.82,7.8,7.8,0,0,1,6.67-3.15,14.19,14.19,0,0,1,8.47,3.24,13.08,13.08,0,0,1,5.24,7.55,8.53,8.53,0,0,1-1.65,7.57l-.12.08-5-3.82a4.74,4.74,0,0,0,1-3.82,6,6,0,0,0-2.53-3.67,6.26,6.26,0,0,0-3.92-1.52,3.66,3.66,0,0,0-2.94,1.5,3.19,3.19,0,0,0-.42,3.09,21.14,21.14,0,0,0,2.85,5,20.52,20.52,0,0,1,4.1,8.08,8.22,8.22,0,0,1-1.7,6.82,7.73,7.73,0,0,1-6.61,3.26,14.4,14.4,0,0,1-8.39-3.34,15.88,15.88,0,0,1-5.73-7.79,8.55,8.55,0,0,1,1.58-8.44l.12-.08,5.05,3.84a5,5,0,0,0-1.16,4.46,8,8,0,0,0,3.13,4.07,6.51,6.51,0,0,0,3.9,1.59A3.52,3.52,0,0,0,565.77,188.82Z"/><path class="cls-5" d="M592.86,206.37l-9.48-9.58-6.59,6.52,11.08,11.2L584.29,218l-15.67-15.84,23.12-22.89,15.64,15.8-3.57,3.54-11-11.17L587,193.25l9.48,9.58Z"/><path class="cls-5" d="M612.44,233.44a13.64,13.64,0,0,1-10.22,2.8,13.09,13.09,0,0,1-9-5.62,12.93,12.93,0,0,1-2.62-10.19,13.72,13.72,0,0,1,5.76-8.88l4.72-3.46a13.75,13.75,0,0,1,10.19-2.83,12.87,12.87,0,0,1,8.93,5.54,13.11,13.11,0,0,1,2.67,10.26,13.64,13.64,0,0,1-5.72,8.91Zm.88-8.74a9.87,9.87,0,0,0,3.91-5.23,6.26,6.26,0,0,0-1.13-5.66,6.09,6.09,0,0,0-5-2.72,10.11,10.11,0,0,0-6.13,2.22l-4.76,3.5a10.15,10.15,0,0,0-4,5.23,6.12,6.12,0,0,0,1.09,5.61,6.22,6.22,0,0,0,5.06,2.77,10.07,10.07,0,0,0,6.2-2.22Z"/><path class="cls-5" d="M275.07,489l-.08.11a10.75,10.75,0,0,1-8.54,2.5q-4.39-.72-7.81-5.27a12.18,12.18,0,0,1-2.55-9.69,13.58,13.58,0,0,1,5.64-8.68l5.17-3.87a13.83,13.83,0,0,1,9.86-3,11.69,11.69,0,0,1,8.47,5q3.52,4.7,3,9.2a10.74,10.74,0,0,1-4.82,7.63l-.13,0L279.6,478a7.24,7.24,0,0,0,3-4.16,5.9,5.9,0,0,0-1.44-4.77,5.26,5.26,0,0,0-4.62-2.19,10.28,10.28,0,0,0-5.85,2.3l-5.2,3.9a10,10,0,0,0-3.83,5.07,5.62,5.62,0,0,0,1,5.24,5.52,5.52,0,0,0,4,2.54,7.27,7.27,0,0,0,4.76-1.79Z"/><path class="cls-5" d="M299.87,511.31a13.86,13.86,0,0,1-9.6,4.41,12.56,12.56,0,0,1-9.55-4,12.41,12.41,0,0,1-4-9.48,13.93,13.93,0,0,1,4.4-9.59l4.13-4.15a14,14,0,0,1,9.56-4.43,12.35,12.35,0,0,1,9.49,3.92,12.58,12.58,0,0,1,4,9.55,13.85,13.85,0,0,1-4.36,9.61Zm-.35-8.65a10.06,10.06,0,0,0,3.1-5.73,6,6,0,0,0-1.88-5.32,5.87,5.87,0,0,0-5.27-1.82,10.31,10.31,0,0,0-5.68,3.17l-4.17,4.19a10.35,10.35,0,0,0-3.18,5.75,5.89,5.89,0,0,0,1.84,5.27A6,6,0,0,0,289.6,510a10.26,10.26,0,0,0,5.75-3.18Z"/><path class="cls-5" d="M318.76,542.34l-5.11-3.73,2.78-25.5-.12-.06L303.22,531l-5.13-3.74L317.27,501l5.13,3.74-2.77,25.48.12.06,13.08-17.92,5.11,3.73Z"/><path class="cls-5" d="M360.24,533.8l-7.92-4.19-12.86,24.31-5.61-3,12.86-24.31-7.88-4.17,2.35-4.44,21.41,11.33Z"/><path class="cls-5" d="M378.12,554.67l-12.29-4.55-3.22,8.7L377,564.13l-1.75,4.71-20.33-7.52,11.29-30.51,20.29,7.51L384.74,543l-14.33-5.31-2.84,7.67L379.86,550Z"/><path class="cls-5" d="M408.79,576.61l-6.19-1.3-8-24.38h-.13L390,572.67l-6.21-1.3,6.66-31.84,6.21,1.3,8,24.36h.13l4.54-21.72,6.19,1.3Z"/><path class="cls-5" d="M443,551.66l-8.94-.53-1.63,27.46-6.34-.38,1.63-27.46-8.9-.53.3-5,24.18,1.43Z"/><path class="cls-5" d="M487.61,564.11l.13,0,.72-22.74,6.11-1-1.83,33.31-5.81,1-9.33-20.2-.13,0-2.12,22.14-5.81,1-12.77-30.83,6.13-1,8.22,21.2h.13l2.11-23,4.61-.78Z"/><path class="cls-5" d="M510.25,555l4.4,12.24-6,2.15-11-30.61,11.23-4q5.09-1.83,8.83-.48a8.69,8.69,0,0,1,5.27,5.62,7.3,7.3,0,0,1,.26,4.51,9,9,0,0,1-2.55,4,6.81,6.81,0,0,1,4.76,1.3,9.19,9.19,0,0,1,2.82,4.21l.81,2.25a12.11,12.11,0,0,0,1.3,2.56,3.94,3.94,0,0,0,1.9,1.66l.16.44-6.16,2.22a3.72,3.72,0,0,1-1.87-1.87,20.63,20.63,0,0,1-1.32-2.9l-.78-2.17a5.26,5.26,0,0,0-2.5-3.13,4.81,4.81,0,0,0-3.88,0Zm-1.7-4.73,5.16-1.85a5.89,5.89,0,0,0,3.36-2.44,4.35,4.35,0,0,0,.07-3.68,4.81,4.81,0,0,0-2.44-2.9,5.26,5.26,0,0,0-4.1.07l-5.26,1.89Z"/><path class="cls-5" d="M546,554.1l-5.7,2.8L526,527.71l5.7-2.8Z"/><path class="cls-5" d="M559.18,514.45l-7.6,4.75,14.57,23.33-5.39,3.36L546.2,522.56l-7.56,4.72L536,523l20.54-12.83Z"/><path class="cls-5" d="M585,529l-5,3.88-19.9-25.74,5-3.88Z"/><path class="cls-5" d="M611.71,504.66l-4.54,4.41-24.66-7-.08.11,15.47,15.93-4.55,4.42-22.67-23.34,4.55-4.42,24.65,7,.08-.11-15.46-15.92,4.54-4.41Z"/><path class="cls-5" d="M630.1,474.4a12,12,0,0,1,.05,5.57,16.83,16.83,0,0,1-3.38,6.92,12.76,12.76,0,0,1-8.69,5.3,13.1,13.1,0,0,1-9.89-2.91l-5.41-4.11a13.4,13.4,0,0,1-5.52-8.64,12,12,0,0,1,2.55-9.49q3.5-4.6,7.67-5.3a10.17,10.17,0,0,1,8,2.11l.08.12-3.62,4.76a6.35,6.35,0,0,0-4.24-1.2,5.53,5.53,0,0,0-3.74,2.43,5.65,5.65,0,0,0-1,5.14,9.46,9.46,0,0,0,3.65,5l5.44,4.14a9.34,9.34,0,0,0,5.91,2.17,6,6,0,0,0,4.85-2.56,11.14,11.14,0,0,0,1.79-3.12,5.36,5.36,0,0,0,.32-2.33l-4.79-3.64-3.4,4.46-3.59-2.73,7.24-9.52Z"/><path class="cls-3" d="M180,517.29l-5.72,8.31s-6.25-2.36-11.12-11c-6.33-11.3-2.77-26.93,8.88-33.46s27-1.54,33.33,9.81c4.86,8.68,3.61,15.25,3.61,15.25l-10.07.55a15.75,15.75,0,0,0-1.88-9.27c-5.14-9.17-13.91-9.54-19.34-6.5s-9.74,10.75-4.6,19.91A15.75,15.75,0,0,0,180,517.29Z"/><path class="cls-3" d="M226.17,523c5.25,6.69,5.53,14.67-1.69,20.32-5.52,4.33-11.55,4.25-16.44.95l-5.45,24.33-8.19-10.46,5.88-22.4-14.52,11.38-6.45-8.22,36.74-28.79ZM207,532.08c2.43,3.11,5.57,6.65,10.16,3.06s1.9-7.49-.54-10.59l-.75-1-9.62,7.54Z"/><path class="cls-3" d="M255.75,568.33l-11.36-11L237.94,564l10.88,10.5-6.48,6.72-10.88-10.5-6.52,6.76,11.36,11-6.48,6.72L210.94,577l32.4-33.6,18.89,18.21Z"/><path class="cls-3" d="M276.16,630.22,267,623.7l2.66-9.57L255.48,604l-8.18,5.63-9.14-6.52,42.18-27.25,7.87,5.62Zm-.23-39.79-.09-.06-12.05,8.08,8.42,6Z"/><path class="cls-3" d="M303.1,591.52l28.61,14.86-4.3,8.29-9.67-5-17.21,33.14L291.25,638l17.21-33.14-9.67-5Z"/><path class="cls-3" d="M331.69,656.31,322,652.51,339,609l9.73,3.8Z"/><path class="cls-3" d="M349.25,614.06l11.38,3.07,3.17,32.62L383,623.16l11.38,3.07L363.6,666.28l-7.94-2.14Z"/><path class="cls-3" d="M424.24,638.58l-15.69-1.78-1,9.22,15,1.7L421.49,657l-15-1.7-1.06,9.33,15.69,1.78L420,675.69l-26.07-3,5.25-46.38,26.07,3Z"/><path class="cls-3" d="M484.67,630.41l-3.42,8.84s-4.84-2.79-9.54-2.35c-3.54.33-5.27,2.14-5,4.68s4.73,4,10.15,5.81,11.3,5.59,11.87,11.68c1,11.1-6.9,15.76-15.81,16.6a26.55,26.55,0,0,1-17.73-4.54l4.37-9.39s6.58,4.67,11.67,4.19c2.27-.21,6.57-.84,6.16-5.18-.32-3.38-5.33-4.45-11-6.7s-9.35-6.29-9.81-11.13c-.81-8.68,6.2-14.9,13.56-15.59A25.78,25.78,0,0,1,484.67,630.41Z"/><path class="cls-3" d="M521.33,628.13,506,631.78l2.15,9,14.71-3.5L525,646.4l-14.71,3.5,2.17,9.14,15.36-3.65,2.16,9.08-25.53,6.07-10.8-45.41L519.17,619Z"/><path class="cls-3" d="M543.21,610.45c7.9-3.14,15.63-1.15,19,7.37,2.59,6.52.81,12.28-3.74,16L580.28,646l-12.35,4.9-19.83-12L554.92,656l-9.71,3.86L528,616.5Zm3.25,21c3.67-1.46,8-3.46,5.8-8.88s-6.65-3.94-10.32-2.48l-1.14.45,4.51,11.36Z"/><path class="cls-3" d="M563.13,602.72l10.11-6.06L598.93,617l-5.87-32.24,10.11-6.06,7.53,49.92-7.06,4.23Z"/><path class="cls-3" d="M643.94,605.11l-8.24,6.43L607,574.73l8.24-6.43Z"/><path class="cls-3" d="M670,564.14l9.51,3.36s-.65,6.65-7.76,13.61c-9.26,9.06-25.28,9.7-34.62.16s-8.52-25.63.77-34.73c7.11-7,13.77-7.47,13.77-7.47l3.16,9.58a15.75,15.75,0,0,0-8.45,4.24c-7.51,7.35-5.58,15.92-1.22,20.36s12.92,6.6,20.42-.75A15.75,15.75,0,0,0,670,564.14Z"/><path class="cls-3" d="M677,515.71l-9.6,12.53,7.37,5.65,9.2-12,7.41,5.68-9.2,12,7.46,5.72,9.6-12.53,7.41,5.68-16,20.82-37.05-28.4,16-20.82Z"/><path class="cls-3" d="M693.46,477l5.27,7.88s-5.06,2.35-7.41,6.46c-1.77,3.09-1.28,5.54.93,6.81s6-1.54,10.59-5,11.07-6,16.38-3c9.68,5.54,8.92,14.71,4.48,22.48a26.54,26.54,0,0,1-13.91,11.89l-5.16-9s7.6-2.69,10.14-7.13c1.13-2,3.09-5.85-.69-8-2.95-1.69-6.7,1.8-11.81,5.15s-10.52,4-14.75,1.62c-7.56-4.33-8.62-13.64-5-20.06A25.78,25.78,0,0,1,693.46,477Z"/><path class="cls-6" d="M320.33,252a158.15,158.15,0,0,1,245.14,0Z"/><path class="cls-5" d="M427.86,216.45h-7.5v4.24h7.19V225h-7.19v4.29h7.5v4.27H415.39V212.18h12.47Z"/><path class="cls-5" d="M446.56,213.81l-2,3.88a9.1,9.1,0,0,0-4.41-1.48c-1.69,0-2.59.75-2.59,1.91s2.06,2,4.54,3.08,5.1,3,5.1,5.82c0,5.1-4,6.88-8.22,6.88a12.88,12.88,0,0,1-8.19-2.82l2.48-4.09s2.91,2.41,5.34,2.41c1.08,0,3.14-.1,3.14-2.09,0-1.55-2.32-2.25-4.91-3.52s-4.15-3.26-4.15-5.48c0-4,3.59-6.52,7.11-6.52A12.56,12.56,0,0,1,446.56,213.81Z"/><path class="cls-5" d="M447.92,212.18h15.32v4.27h-5.18v17.07h-5V216.45h-5.18Z"/><path class="cls-5" d="M470.42,231a3,3,0,1,1-3-3A3,3,0,0,1,470.42,231Z"/><path class="cls-6" d="M320.33,448.07a156.08,156.08,0,0,0,245.14,0Z"/><path class="cls-5" d="M406.11,474.22l-5-2.44s2.57-7.7,9.75-7.7c9.07,0,10.26,6,10.26,9.3,0,6.19-9.33,12.35-9.33,12.35h9.81V491H400.95v-1.51s13.63-11.25,13.63-16.13c0-1-.22-4.2-3.75-4.2C407.94,469.18,406.11,474.22,406.11,474.22Z"/><path class="cls-5" d="M436.29,464.09c5.68,0,10.74,4.55,10.74,13.72,0,9.81-5.07,13.69-10.74,13.69s-10.77-3.88-10.77-13.69C425.51,468.64,430.61,464.09,436.29,464.09Zm0,22.12c2.89,0,4.65-2.69,4.65-8.4,0-5.35-1.76-8.43-4.65-8.43s-4.68,3.11-4.68,8.43C431.6,483.52,433.37,486.21,436.29,486.21Z"/><path class="cls-5" d="M450.14,469.44l7.53-4.87h2.85V491h-6V472.58l-4.36,2.82Z"/><path class="cls-5" d="M474.54,473.64a4.07,4.07,0,0,1,1.89-.39,8.86,8.86,0,0,1,8.43,9.27c0,6.26-5,9-9.81,9-5.93,0-10.55-3.91-10.55-9,0-4.65,1.41-6.8,4.17-10.55l6.22-7.4h7.44Zm.22,12.89a3.93,3.93,0,0,0,4.07-4,4,4,0,1,0-8.08,0A3.87,3.87,0,0,0,474.76,486.53Z"/><path class="cls-7" d="M58.74,357.77v.39L97,371.56v18L39.84,365.26V350.34L97,326.07v18Z"/><path class="cls-7" d="M128.76,402.6H109.93l35.41-104.84h18.83Z"/><path class="cls-7" d="M217.75,357.9v-.39l-38.86-13.6V326.07l57.82,24.27v14.92L178.89,389.6V371.7Z"/><path class="cls-6" d="M510.21,332.63a2.79,2.79,0,1,1,0,5.59H494.57a2.79,2.79,0,0,1,0-5.59Zm0,0"/><path class="cls-6" d="M503.61,300.37a2.8,2.8,0,0,1-1,3.82L489.05,312a2.79,2.79,0,1,1-2.79-4.84l13.54-7.82a2.79,2.79,0,0,1,3.81,1Zm0,0"/><path class="cls-6" d="M502.59,366.66a2.79,2.79,0,0,1-2.79,4.84l-13.54-7.82a2.79,2.79,0,1,1,2.79-4.84Zm0,0"/><path class="cls-6" d="M486.47,334.93a43.17,43.17,0,0,1-8.83,26.3,71.48,71.48,0,0,0-14.85,43.45v16.85a13.57,13.57,0,0,1-13.56,13.55h-12.6a13.57,13.57,0,0,1-13.56-13.55V404.68a72.13,72.13,0,0,0-14.86-43.38,43.57,43.57,0,1,1,78.25-26.37Zm-13.28,22.92A38,38,0,0,0,442.35,297a38.19,38.19,0,0,0-37.43,37.62,37.63,37.63,0,0,0,7.74,23.34,77.82,77.82,0,0,1,16,45.71h28.5a77.13,77.13,0,0,1,16-45.78Zm-16,63.67v-.88l-28.54-3.27v2.26l28.42,3.25a7.82,7.82,0,0,0,.13-1.36Zm0-6.51v-5.81H428.66v2.54Zm-3.51,13.1-24-2.76a8,8,0,0,0,7,4.13h12.6a7.93,7.93,0,0,0,4.46-1.37Zm0,0"/><path class="cls-6" d="M478,274.72a2.79,2.79,0,0,1,1,3.81l-7.81,13.54a2.79,2.79,0,0,1-4.84-2.79l7.82-13.54a2.79,2.79,0,0,1,3.82-1Zm0,0"/><path class="cls-6" d="M474.84,332.21c0,.88,0,1.76-.12,2.63a2.35,2.35,0,0,1-2.33,2.13h-.22a2.35,2.35,0,0,1-2.12-2.55c.07-.73.1-1.47.1-2.2a23.49,23.49,0,0,0-23.47-23.47,2.35,2.35,0,0,1,0-4.69,28.19,28.19,0,0,1,28.16,28.16Zm0,0"/><path class="cls-6" d="M471.34,340.25a2.35,2.35,0,0,1,1.23,3.09,28.17,28.17,0,0,1-3.43,5.87,2.35,2.35,0,1,1-3.74-2.84,23.6,23.6,0,0,0,2.86-4.9,2.34,2.34,0,0,1,3.08-1.23Zm0,0"/><path class="cls-3" d="M457.21,420.65v.88a7.82,7.82,0,0,1-.13,1.36l-28.42-3.25v-2.26Zm0,0"/><path class="cls-3" d="M457.21,409.22V415l-28.54-3.27v-2.54Zm0,0"/><path class="cls-3" d="M429.65,425.37l24,2.76a7.93,7.93,0,0,1-4.46,1.37h-12.6a8,8,0,0,1-7-4.13Zm0,0"/><path class="cls-6" d="M445.7,268.12v15.64a2.79,2.79,0,1,1-5.59,0V268.12a2.79,2.79,0,1,1,5.59,0Zm0,0"/><path class="cls-6" d="M432,370.19a2.35,2.35,0,0,1-4.46,1.47,69.72,69.72,0,0,0-10.8-20.53,28.46,28.46,0,0,1-2.63-4.16,2.35,2.35,0,1,1,4.17-2.16,23.73,23.73,0,0,0,2.2,3.47A74.5,74.5,0,0,1,432,370.19Zm0,0"/><path class="cls-6" d="M419.49,289.28a2.79,2.79,0,0,1-4.84,2.79l-7.81-13.54a2.79,2.79,0,0,1,4.84-2.79Zm0,0"/><path class="cls-6" d="M415.92,337.62a2.35,2.35,0,0,1-2,2.67l-.35,0a2.35,2.35,0,0,1-2.32-2,28.46,28.46,0,0,1-.31-4.49,2.35,2.35,0,0,1,4.69,0,23.8,23.8,0,0,0,.26,3.75Zm0,0"/><path class="cls-6" d="M399.55,307.17a2.79,2.79,0,0,1-2.79,4.84l-13.54-7.82a2.79,2.79,0,1,1,2.79-4.84Zm0,0"/><path class="cls-6" d="M400.57,359.86a2.8,2.8,0,0,1-1,3.82L386,371.5a2.79,2.79,0,0,1-2.79-4.84l13.54-7.82a2.79,2.79,0,0,1,3.81,1Zm0,0"/><path class="cls-6" d="M391.24,332.63a2.79,2.79,0,0,1,0,5.59H375.6a2.79,2.79,0,0,1,0-5.59Zm0,0"/><path class="cls-8" d="M685.13,287.74V412.61H773V287.74Zm35.6,46.72h-24v-4.62h24Zm40.94-15.28h-65v-4.62h65Zm0-15.48h-65v-4.62h65Z"/><polygon class="cls-5" points="730.9 372.38 717.97 380.48 707.33 408 734.84 397.36 742.94 384.18 730.9 372.38"/><rect class="cls-5" x="729.77" y="348.18" width="49.72" height="25.2" transform="translate(-34.08 639.27) rotate(-45)"/><path class="cls-5" d="M782.94,353.88l-21.5-21.5,31.92-31.92a15,15,0,0,1,21.5,0h0a15,15,0,0,1,0,21.5Z"/><path class="cls-6" d="M816.48,298.84A17.46,17.46,0,0,0,804,293.76a18.35,18.35,0,0,0-12.48,5.08l-7,7.18V276.18h-111v148h111V355.5l31.92-31.92a17.6,17.6,0,0,0,0-24.74ZM779.94,419.55H678.19V280.8H779.94v29.84L758.2,332.38l1.84,1.84-35.38,35.16,2.54,2.54-10.64,6.48a2.31,2.31,0,0,0-.92,1.16l-10.4,27.28a3.34,3.34,0,0,0,.46,2.54,2.15,2.15,0,0,0,2.54.46l27.28-10.4a2.44,2.44,0,0,0,1.16-.92l6.48-10.64,2.54,2.54,34.22-34v63.14h0Zm-48.56-50.18,31.92-31.92L777.86,352l-31.92,31.92Zm8.54,15.26-6.7,10.86-21.74,8.32,8.32-21.74,10.86-6.7,8.56,8.56Zm73.32-64.3-30.3,30.3-18.26-18.26L795,302.08c2.54-2.78,11.34-6.94,18.26,0C815.78,304.62,819.94,312.94,813.24,320.34Z"/><path class="cls-8" d="M808.19,306.89h0a5.88,5.88,0,0,0-8.32,0l-25.49,25.49,8.32,8.32,25.46-25.46A5.89,5.89,0,0,0,808.19,306.89Z"/></g></g></svg>