<svg xmlns="http://www.w3.org/2000/svg" viewBox="0 0 200 200"><defs><style>.cls-1{fill:#404040;}.cls-10,.cls-11,.cls-12,.cls-13,.cls-14,.cls-15,.cls-16,.cls-17,.cls-18,.cls-19,.cls-2,.cls-20,.cls-21,.cls-22,.cls-3,.cls-4,.cls-5,.cls-6,.cls-7,.cls-8,.cls-9{fill:#ddd;}.cls-10,.cls-11,.cls-12,.cls-13,.cls-14,.cls-15,.cls-16,.cls-17,.cls-18,.cls-19,.cls-20,.cls-21,.cls-22,.cls-3,.cls-4,.cls-5,.cls-6,.cls-7,.cls-8,.cls-9{isolation:isolate;font-family:Georgia, Georgia;}.cls-3{font-size:19.53px;}.cls-4{font-size:11.84px;}.cls-5{font-size:11.83px;}.cls-6{font-size:11.79px;}.cls-7{font-size:11.88px;}.cls-8{font-size:11.82px;}.cls-9{font-size:11.86px;}.cls-10{font-size:11.99px;}.cls-11{font-size:11.72px;}.cls-12{font-size:11.83px;}.cls-13{font-size:11.8px;}.cls-14{font-size:11.87px;}.cls-15{font-size:11.8px;}.cls-16{font-size:11.84px;}.cls-17{font-size:11.89px;}.cls-18{font-size:11.86px;}.cls-19{font-size:11.81px;}.cls-20{font-size:11.82px;}.cls-21{font-size:11.8px;}.cls-22{font-size:11.83px;}</style></defs><title>Asset 1</title><g id="Layer_2" data-name="Layer 2"><g id="Layer_1-2" data-name="Layer 1"><g id="Layer_2-2" data-name="Layer 2"><g id="Layer_1-2-2" data-name="Layer 1-2"><circle class="cls-1" cx="100" cy="100" r="100"/><path class="cls-2" d="M0,100.3A100,100,0,1,1,100.3,200H100A100,100,0,0,1,0,100.3m3,0a97,97,0,1,0,97.34-97H100A97,97,0,0,0,3,100.3Z"/><path class="cls-2" d="M71,69.53a29,29,0,0,0,8.28-5.33,32,32,0,0,0,5.33,11.54,18.33,18.33,0,0,0-6.51,3.85A21,21,0,0,0,71,69.53m33.73-17.75a28.7,28.7,0,0,0-10.67,1.48,32.25,32.25,0,0,0-5.92-15.38c.3-.3,8.58-3.55,13.91-2.67s3,12.13,3,16.57h-.28Zm5,99.41,3.25,2.07H85.8c2.67-1.48,5-2.67,5.33-3.85a34.33,34.33,0,0,0,0-15.67,20.12,20.12,0,0,0-11.55-10.07,17.75,17.75,0,0,0-5.33,2.07l3,2.07a20.41,20.41,0,0,0-6.51,7.1,24.56,24.56,0,0,0-5-4.73,18.33,18.33,0,0,1,6.8-7.1L74,124.56a8.88,8.88,0,0,1,3.85-2.07,70.12,70.12,0,0,0-15.67-3.85V124A37.28,37.28,0,0,0,45,126c0-.59-1.78-8.88.3-13.91s13.31.3,18,1.18a29.88,29.88,0,0,0-.89,3.85,49.7,49.7,0,0,1,11.24-.6,18.33,18.33,0,0,0-7.39-5.9A32,32,0,0,1,57.69,105l-4.44,2.37A30.47,30.47,0,0,0,45.56,92,50.89,50.89,0,0,0,58,87.28c.59,4.14,1.48,12.72,4.44,16.57a11.54,11.54,0,0,0-4.73,1.48,32,32,0,0,0,10.06,4.44,9.76,9.76,0,0,1,0-4.44h-2.1a22.19,22.19,0,0,1,.3-7.69,13.61,13.61,0,0,1,5.92.59,15.09,15.09,0,0,0-1.78,7.4H67.74a9.47,9.47,0,0,0,1.18,4.73,16.27,16.27,0,0,1,9.47,7.4l8,2.07a11,11,0,0,0-.88-4.15l-2.07.59a14.79,14.79,0,0,0-3.55-6.8,18,18,0,0,1,5.92-2.07,18.64,18.64,0,0,1,2.07,7.4H85.5a22.49,22.49,0,0,1,1.78,4.73L92,121.59a26,26,0,0,0-6.21-19.22l-4.73,3.85C79.59,100,70.4,92,70.4,92a40.24,40.24,0,0,0,9.76-7.1c5.62,3,9.76,11.54,10.67,13.91l-4.44,2.37,5.33,4.44,2.07,3a12.13,12.13,0,0,0,3-3.55l-3-.89a24.26,24.26,0,0,0,3.85-9.76,17.16,17.16,0,0,0,6.8,2.67,19.82,19.82,0,0,1-3.55,10.06l-3-1.48a13.31,13.31,0,0,1-3,5c1.78,3.85,3,8.28,4.73,12.43,10.67-8.88,7.69-25.74,5.62-33.43l-5,3.85A39.33,39.33,0,0,0,86.39,80.19c.3-.3,6.51-8,12.43-9.47s8.88,11.54,11.54,16.57l-3.84,2a37.28,37.28,0,0,1,5.62,13.33l4.73-3.85-2.07-.89a18.33,18.33,0,0,1,6.8-7.1,19.23,19.23,0,0,0,5,4.44,20.41,20.41,0,0,0-6.51,7.1l-2.67-2.67a37.57,37.57,0,0,0-5,9.17,34.91,34.91,0,0,1-.89,10.95,24,24,0,0,1,9.76-3,12.43,12.43,0,0,1,6.21-8L124.26,105c3.55-3.55,10.36-10.06,14.2-10.95a29,29,0,0,1,8,11.54,37.28,37.28,0,0,0-15.38,7.69l-2.67-3.85a14.5,14.5,0,0,0-3.25,7.1,69.53,69.53,0,0,1,13.61.59,15.38,15.38,0,0,0,.3-5c2.37-.3,11.83,0,17.16,3.85a41.12,41.12,0,0,0-2.07,12.13s-10.95-4.73-17.16-3.55a33.14,33.14,0,0,0,1.48-5.62,36.39,36.39,0,0,0-18.33,2.67l5.92,1.18a5.92,5.92,0,0,0,.59-2.07,16.57,16.57,0,0,1,8.58,4.73,13,13,0,0,0-3.56,5.63,22.49,22.49,0,0,0-8.58-4.44l2.07-3.25a33.14,33.14,0,0,0-8-.3l-4.73,3.25a15.38,15.38,0,0,0-4.14,6.21,8.28,8.28,0,0,1,1.18,4.14,5.62,5.62,0,0,1-3,5.62,13.91,13.91,0,0,0,3.25,8.88Zm-3-15.09a2.67,2.67,0,0,0-1.48-3,3.24,3.24,0,0,0-.3,5.62,2.37,2.37,0,0,0,1.78-2.67Zm-2.07-5.33c-2.07.59-3,3-2.37,6.21a6.21,6.21,0,0,1,2.07-5.62c.89-.59.3-.89.3-.89h0Zm-18-62.43A37.28,37.28,0,0,0,75.44,54.72c.3-.3,6.8-6.21,12.13-7.4s7.1,11.54,8.58,16l-5,2.07a10.36,10.36,0,0,1,0,5.33A23.67,23.67,0,0,0,89.94,66ZM46.75,98.22c-1.18,1.48-1.48,8-1.18,12.43a46.75,46.75,0,0,0-17.46-2.07,30.18,30.18,0,0,0,1.18-12.43C32,98.22,42.6,98.52,46.75,98.22ZM73.67,84a26,26,0,0,0-11.54,3.85c-.3-5.62-5.62-13.61-8.28-17.75,5.33-.3,14.79-5,14.79-5C67.45,70.42,70.41,78.7,73.37,84ZM118,58a23.37,23.37,0,0,0-8.88,0c-.59-3.85-1.18-11.83.3-15.09a24,24,0,0,1,11.53.88A29.59,29.59,0,0,0,118,58ZM68.64,62.73s-5-7.4-9.17-8.89a27.81,27.81,0,0,0,5.92-6.51,23.08,23.08,0,0,1,8.88,8.88,26,26,0,0,0-5.62,6.51Zm57.69,20.4c5.62-3,11.24-13.61,11.24-13.61a47.33,47.33,0,0,0,9.17,8.28C145,84,137.87,90.24,135.8,91.42a13,13,0,0,0-3-3.25,20.12,20.12,0,0,0-5,8.88,26.63,26.63,0,0,1,3.86-9.77ZM153,113.61c.59-2.07-2.07-8.88-4.44-13.61a47.93,47.93,0,0,0,19.23-6.21,38.17,38.17,0,0,0,4.44,13.61C168.64,106.8,157.1,111.24,153,113.61Zm-9.17-25.15c4.73-3,11.24-9.17,12.72-14.2a52.07,52.07,0,0,0,10.67,10.67c-4.14,2.37-12.43,7.4-15.09,11.83a23.37,23.37,0,0,0-8.28-8.28ZM120.12,64.8c1.78-3.55,5.62-13.61,5.33-16.57a32.84,32.84,0,0,0,11.83,3.85,44.08,44.08,0,0,0-5,16.26c-3.85-2.07-10.06-4.44-11.83-3.85h0Zm-3.85,17.75a34,34,0,0,1-5,10.95,32.84,32.84,0,0,0,3-11.54l-4.73-1.18c3-3.85,3.55-12.43,3.85-16.57A45,45,0,0,0,126,68.33c-3.55,3-5.92,10.67-6.51,16ZM98.82,59.17a20.12,20.12,0,0,0,8.28-1.78,35.8,35.8,0,0,0,2.37,11.83A20.71,20.71,0,0,0,101.18,71a33.43,33.43,0,0,0-2.37-11.83Zm56.51,2.67a23.08,23.08,0,0,0-7.1,8.88,21,21,0,0,0-6.51-3c1.18-3,3.25-8.88,5.33-10.67a20.41,20.41,0,0,1,8.28,4.45ZM46.75,84.62C45,79.88,37.58,74.26,37.58,74.26a42.6,42.6,0,0,0,7.09-5.93,24.56,24.56,0,0,1,9.47,9.76A30.18,30.18,0,0,0,46.75,84.62Z"/><path class="cls-2" d="M48.82,152.07H150.89v1.48H48.82Z"/><path class="cls-2" d="M42.9,162.13h-.59A83.43,83.43,0,0,1,16,108.88a.89.89,0,0,1,1.48-.3,82.25,82.25,0,0,0,26,52.09.89.89,0,0,1,0,1.18H42.9Z"/><path class="cls-2" d="M156.81,162.13h-.59a.89.89,0,0,1,0-1.18,82.54,82.54,0,0,0,26-52.37.89.89,0,1,1,1.48.3,84.62,84.62,0,0,1-26.33,53.25Z"/><text class="cls-3" transform="translate(58.58 176.33)">Est. 2002</text><text class="cls-4" transform="translate(20.42 102.96) rotate(-91.15)">I</text><text class="cls-5" transform="translate(20.41 96.74) rotate(-84.3)">N</text><text class="cls-5" transform="matrix(0.22, -0.98, 0.98, 0.22, 21.6, 86.39)">T</text><text class="cls-6" transform="translate(23.55 77.75) rotate(-70.66)">E</text><text class="cls-7" transform="translate(26.63 69.05) rotate(-63.95)">R</text><text class="cls-8" transform="matrix(0.54, -0.84, 0.84, 0.54, 31.07, 60.36)">A</text><text class="cls-9" transform="matrix(0.64, -0.77, 0.77, 0.64, 36.15, 52.54)">C</text><text class="cls-10" transform="matrix(0.72, -0.7, 0.7, 0.72, 42.01, 45.59)">T</text><text class="cls-11" transform="matrix(0.78, -0.62, 0.62, 0.78, 48.49, 39.53)">I</text><text class="cls-12" transform="translate(53.26 35.8) rotate(-32.8)">O</text><text class="cls-13" transform="matrix(0.9, -0.43, 0.43, 0.9, 61.84, 30.18)">N</text><text class="cls-14" transform="translate(75.51 24.38) rotate(-14.45)">D</text><text class="cls-15" transform="translate(85.5 21.9) rotate(-7.5)">E</text><text class="cls-16" transform="matrix(1, -0.02, 0.02, 1, 94.65, 20.8)">S</text><text class="cls-5" transform="translate(102.66 20.71) rotate(3.7)">I</text><text class="cls-17" transform="translate(108.88 21.01) rotate(9.7)">G</text><text class="cls-12" transform="translate(118.94 22.78) rotate(17)">N</text><text class="cls-18" transform="translate(132.84 27.81) rotate(27.3)">F</text><text class="cls-12" transform="matrix(0.83, 0.56, -0.56, 0.83, 140.53, 31.66)">O</text><text class="cls-19" transform="matrix(0.75, 0.66, -0.66, 0.75, 148.94, 37.49)">U</text><text class="cls-20" transform="matrix(0.66, 0.75, -0.75, 0.66, 156.81, 44.38)">N</text><text class="cls-12" transform="matrix(0.56, 0.83, -0.83, 0.56, 163.61, 52.37)">D</text><text class="cls-21" transform="matrix(0.45, 0.89, -0.89, 0.45, 169.23, 60.95)">A</text><text class="cls-22" transform="matrix(0.34, 0.94, -0.94, 0.34, 173.25, 69.41)">T</text><text class="cls-5" transform="translate(176.04 77.81) rotate(75.3)">I</text><text class="cls-12" transform="translate(177.81 83.73) rotate(81.3)">O</text><text class="cls-12" transform="matrix(0.02, 1, -1, 0.02, 179.29, 93.79)">N</text></g></g></g></g></svg>