<?xml version="1.0" encoding="utf-8"?>
<!-- Generator: Adobe Illustrator 21.0.2, SVG Export Plug-In . SVG Version: 6.00 Build 0)  -->
<svg version="1.1" id="Layer_1" xmlns="http://www.w3.org/2000/svg" xmlns:xlink="http://www.w3.org/1999/xlink" x="0px" y="0px"
	 viewBox="0 0 200 200" style="enable-background:new 0 0 200 200;" xml:space="preserve">
<style type="text/css">
	.st0{fill:#0021A5;}
	.st1{fill:none;}
</style>
<g id="Layer_2">
	<g id="Layer_1-2">
		<polygon class="st0" points="142.3,143.7 142.3,109.3 174,109.3 174,86.7 142.3,86.7 142.3,54.6 177.1,54.6 177.1,67 200,67 
			200,32.1 108.2,32.1 108.2,54.6 116.8,54.6 116.8,143.7 108.2,143.7 108.2,166.4 150.6,166.4 150.6,143.7 		"/>
		<path class="st0" d="M97.4,115.6V54.6h8.5V32.1H63.4v22.5h8.3V108c0,22.4-2.6,33.2-18.7,33.2S34.3,130.5,34.3,108V54.6h8.2V32.1H0
			v22.5h8.4v61.1c0,13.3,0,24.3,6.3,34.1c7,11.1,19.8,18.2,38.3,18.2C85.8,167.9,97.4,150.8,97.4,115.6L97.4,115.6z"/>
		<rect class="st1" width="200" height="200"/>
	</g>
</g>
</svg>
