<svg xmlns="http://www.w3.org/2000/svg" viewBox="0 0 504 504"><defs><style>.cls-1{fill:#ffad40;}</style></defs><title>Asset 8</title><g id="Layer_2" data-name="Layer 2"><g id="Layer_2-2" data-name="Layer 2"><path class="cls-1" d="M0,0V504H259.52L378.2,385V0ZM20.12,21.5H357V370H255.25a10.62,10.62,0,0,0-10.57,10.7V482.5H20.12V21.5Zm245.8,446.09V390.34h76.31Z"/><rect class="cls-1" x="62.29" y="57.65" width="253.62" height="18"/><rect class="cls-1" x="62.29" y="112.9" width="253.62" height="18"/><rect class="cls-1" x="62.29" y="168.16" width="253.62" height="18"/><rect class="cls-1" x="62.29" y="223.42" width="253.62" height="18"/><rect class="cls-1" x="62.29" y="278.67" width="253.62" height="18"/><rect class="cls-1" x="62.29" y="333.93" width="253.62" height="18"/><rect class="cls-1" x="62.29" y="389.18" width="197.19" height="18"/><path class="cls-1" d="M460.87,0H432.45a7.34,7.34,0,0,0-7.3,7.39V50.45h-4a7.34,7.34,0,0,0-7.3,7.39V394a149.2,149.2,0,0,0,12.81,60.72L438.1,480.6a7.38,7.38,0,0,0,1.26,1.93v14.08a7.34,7.34,0,0,0,7.3,7.39,7.23,7.23,0,0,0,5.16-2.16,7.41,7.41,0,0,0,2.14-5.22V482.53a7.38,7.38,0,0,0,1.26-1.94l11.46-25.91A149.23,149.23,0,0,0,479.48,394V99.62c5.2,3.32,9.92,13.31,9.92,25.88v88.58a7.34,7.34,0,0,0,7.3,7.39,7.23,7.23,0,0,0,5.16-2.16,7.41,7.41,0,0,0,2.14-5.22V125.5c0-10.55-2.55-20.57-7.19-28.22-4.45-7.34-10.62-12-17.33-13.26V57.83a7.34,7.34,0,0,0-7.3-7.39h-4V7.39A7.35,7.35,0,0,0,460.87,0Zm4,394a134.37,134.37,0,0,1-11.54,54.68l-6.69,15.12L440,448.65A134.37,134.37,0,0,1,428.43,394V382.64h36.45Zm0-26.1H428.43V65.22h36.45ZM453.57,50.45H439.74V14.78h13.83Z"/></g></g></svg>