<?xml version="1.0" encoding="utf-8"?>
<!-- Generator: Adobe Illustrator 21.0.2, SVG Export Plug-In . SVG Version: 6.00 Build 0)  -->
<svg version="1.1" id="Layer_1" xmlns="http://www.w3.org/2000/svg" xmlns:xlink="http://www.w3.org/1999/xlink" x="0px" y="0px"
	 viewBox="0 0 504 504" style="enable-background:new 0 0 504 504;" xml:space="preserve">
<style type="text/css">
	.st0{display:none;}
	.st1{display:inline;fill:#F7F7F7;}
	.st2{display:none;fill:#777777;}
	.st3{fill:#777777;}
</style>
<g id="Layer_3" class="st0">
	<rect x="-106.4" y="-89.9" class="st1" width="653.2" height="653.2"/>
</g>
<title>Asset 7</title>
<path class="st2" d="M0,0v504h259.5l118.7-119V0H0z M20.1,21.5H357V370H255.2c-5.9,0-10.6,4.8-10.6,10.7c0,0,0,0,0,0v101.8H20.1
	V21.5z M265.9,467.6v-77.2h76.3L265.9,467.6z"/>
<path class="st3" d="M314.9,387.3c-0.3,0.2-0.7,0.4-1.1,0.5c-0.3,0.9-0.7,1.8-1.1,2.5h2.1C314.8,389.3,314.9,388.3,314.9,387.3z"/>
<path class="st3" d="M0,0v71.8v347V504h240.2c0-7.2,0.3-14.3,0.7-21.5H20.1v-461H357v152c6-0.2,11,3,14.1,8c1.2,1.9,2.1,4,3,6
	c0,0,0,0,0,0c1.2,0,2.4,0.3,3.3,0.9c0.2,0.1,0.4,0.3,0.7,0.4V0H0z"/>
<path class="st3" d="M312.1,427.4c0.9,0.4,1.6,1.1,2.2,1.8c-0.1-3.5-0.2-6.9-0.2-10.4l-2.8,2.8C311.6,423.6,311.9,425.5,312.1,427.4
	z"/>
<g>
	<path class="st3" d="M310.2,51.3H68c-2.4,0-4.3,1.9-4.3,4.3V246c0,2.4,1.9,4.3,4.3,4.3h242.3c2.4,0,4.3-1.9,4.3-4.3V55.6
		C314.6,53.3,312.6,51.3,310.2,51.3z M305.9,241.7H72.3V60h233.6V241.7z"/>
	<path class="st3" d="M132.9,147.1c13.3,0,24.1-10.8,24.1-24.1c0-13.3-10.8-24.1-24.1-24.1c-13.3,0-24.1,10.8-24.1,24.1
		S119.6,147.1,132.9,147.1z M132.9,107.6c8.5,0,15.4,6.9,15.4,15.4s-6.9,15.4-15.4,15.4c-8.5,0-15.4-6.9-15.4-15.4
		S124.3,107.6,132.9,107.6z"/>
	<path class="st3" d="M93.9,224.4c1,0,2-0.4,2.9-1.1l70.6-62.1l44.6,44.6c1.7,1.7,4.4,1.7,6.1,0s1.7-4.4,0-6.1l-20.8-20.8l39.7-43.5
		l48.7,44.7c1.8,1.6,4.5,1.5,6.1-0.3c1.6-1.8,1.5-4.5-0.3-6.1L239.6,126c-0.8-0.8-2-1.2-3.1-1.1c-1.1,0.1-2.2,0.6-3,1.4l-42.4,46.4
		l-20.5-20.5c-1.6-1.6-4.2-1.7-5.9-0.2l-73.6,64.8c-1.8,1.6-2,4.3-0.4,6.1C91.5,223.9,92.7,224.4,93.9,224.4z"/>
</g>
<g>
	<g>
		<path class="st3" d="M493.5,192.2l2.4-7c1-2.9-0.6-6.1-3.5-7.1c-2.9-1-6.1,0.6-7.1,3.5l-2.4,7c-4.1-0.3-8.3,0.4-12,2.3
			c-5.5,2.7-9.6,7.4-11.6,13.2l-22,64.8h-6.8l-1.1-81.5c-0.1-7.6-6.4-13.7-13.9-13.7c-7.6,0-13.8,6.2-13.9,13.7l-1.1,81.5h-12.9
			v-65.6c0-1.1-0.3-2.2-1-3.1l-26.1-38.9c-1-1.6-2.8-2.5-4.7-2.5s-3.6,0.9-4.7,2.5l-26.1,38.9c-0.6,0.9-1,2-1,3.1V269h-13.7
			c-3.1,0-5.6,2.5-5.6,5.6c0,3.1,2.5,5.6,5.6,5.6h1.1v18.9h-21.7c-19.9,0-36.1,16.2-36.1,36.1v82.3c0,19.9,16.2,36.1,36.1,36.1h21.7
			v17.7c0,17.9,14.6,32.5,32.5,32.5h118.4c17.9,0,32.5-14.6,32.5-32.5V280.2h1.1c3.1,0,5.6-2.5,5.6-5.6c0-3.1-2.5-5.6-5.6-5.6h-10.2
			l17-50C506.2,208.8,502.1,197.8,493.5,192.2z M311.4,421.5h-19.7c-3.3,0-6-2.7-6-6v-78.3c0-3.3,2.7-6,6-6h19.7V421.5z
			 M311.4,320.1h-19.7c-9.5,0-17.2,7.7-17.2,17.2v78.3c0,9.5,7.7,17.2,17.2,17.2h19.7v9.7h-21.7c-13.7,0-24.9-11.2-24.9-24.9v-82.3
			c0-13.7,11.2-24.9,24.9-24.9h21.7V320.1z M457,245.5l22.3,7.6l-5.4,15.9H449L457,245.5z M412.6,187.7c0-1.5,1.2-2.7,2.7-2.7
			c1.5,0,2.7,1.2,2.7,2.7l1.1,81.3h-7.7L412.6,187.7z M404,280.2c0.3,0.1,0.6,0.2,1,0.2v63.9c0,3.1-2.5,5.6-5.6,5.6
			s-5.6-2.5-5.6-5.6v-18.1c0-9.3-7.5-16.8-16.8-16.8c-9.3,0-16.8,7.5-16.8,16.8v35.1c0,3.1-2.5,5.6-5.6,5.6s-5.6-2.5-5.6-5.6v-81.1
			H404z M376.1,269h-14.8v-54.8c5-0.4,10-1.3,14.8-2.8V269z M355.6,174.6l5.6,8.3c-1.8,0.5-3.7,0.8-5.6,0.8c-1.9,0-3.8-0.3-5.6-0.8
			L355.6,174.6z M343.6,192.5c3.8,1.6,7.8,2.5,12,2.5c4.2,0,8.2-0.9,12-2.5l5.4,8.1c-11.3,3.4-23.5,3.4-34.8,0L343.6,192.5z
			 M335.2,211.4c4.9,1.4,9.8,2.4,14.8,2.8V269h-14.8V211.4z M483.6,471.5L483.6,471.5c0,11.7-9.6,21.3-21.3,21.3H343.9
			c-11.7,0-21.3-9.6-21.3-21.3V280.2h15.4v81.1c0,9.3,7.5,16.8,16.8,16.8c9.3,0,16.8-7.5,16.8-16.8v-35.1c0-3.1,2.5-5.6,5.6-5.6
			s5.6,2.5,5.6,5.6v18.1c0,9.3,7.5,16.8,16.8,16.8s16.8-7.5,16.8-16.8v-63.8l67.4-0.3V471.5z M492.1,215.3l-9.2,27.1l-22.3-7.6
			l9.2-27.1c1-3,3.1-5.4,6-6.8c2.8-1.4,6-1.6,9-0.6C490.9,202.5,494.2,209.2,492.1,215.3z"/>
	</g>
</g>
<path class="st3" d="M328,492.2c-1.4-0.5-2.6-1.3-3.6-2.6c-1-1.3-1.8-2.5-2.5-4c-0.5-1-0.7-2-0.7-3h-101V504H339
	C335.2,500.2,331.7,496.1,328,492.2z"/>
</svg>
