<svg xmlns="http://www.w3.org/2000/svg" viewBox="0 0 504 504"><defs><style>.cls-1{fill:#ffad40;}</style></defs><title>Asset 9</title><g id="Layer_2" data-name="Layer 2"><g id="Layer_1-2" data-name="Layer 1"><path class="cls-1" d="M496.11,0H7.89A8,8,0,0,0,0,8V496a8,8,0,0,0,7.89,8H496.11a8,8,0,0,0,7.89-8V8A8,8,0,0,0,496.11,0Zm-7.89,487.95H15.78V118.78H488.22V487.95Zm0-385.22H15.78V16.05H488.22v86.67Z"/><path class="cls-1" d="M324.75,34.24H232.15a8,8,0,0,0,0,16.05h92.59a8,8,0,0,0,0-16.05Z"/><path class="cls-1" d="M244.11,34.24H151.52a8,8,0,0,0,0,16.05h92.59a8,8,0,0,0,0-16.05Z"/><path class="cls-1" d="M417.2,34.24H324.6a8,8,0,0,0,0,16.05H417.2a8,8,0,0,0,0-16.05Z"/><path class="cls-1" d="M166.24,228a24.14,24.14,0,0,0-6.48-17.21,23.4,23.4,0,0,0-33.47-.92l-80,77a24.35,24.35,0,0,0,.5,35.42l80,72.77a23.41,23.41,0,0,0,15.78,6.13h0a23.53,23.53,0,0,0,17.65-8,24.39,24.39,0,0,0-1.86-34l-60.8-55.33,61.3-59.06A24.11,24.11,0,0,0,166.24,228ZM148,233.21,80.48,298.27a8.12,8.12,0,0,0,.17,11.81l67.19,61.14a8.13,8.13,0,0,1,.62,11.33,7.8,7.8,0,0,1-11.14.63l-80-72.76a8.12,8.12,0,0,1-.17-11.81l80-77a7.77,7.77,0,0,1,5.42-2.2h.22a7.78,7.78,0,0,1,5.52,2.5,8.12,8.12,0,0,1-.3,11.35Z"/><path class="cls-1" d="M457.68,287l-80-77a23.42,23.42,0,0,0-33.47.92,24.4,24.4,0,0,0,.9,34l61.3,59.06-60.8,55.33a24.39,24.39,0,0,0-1.86,34,23.54,23.54,0,0,0,17.65,8h0a23.41,23.41,0,0,0,15.78-6.13l80-72.76a24.36,24.36,0,0,0,.5-35.42Zm-11,23.46-80,72.76a7.8,7.8,0,0,1-5.26,2h0a7.75,7.75,0,0,1-5.89-2.67,8.13,8.13,0,0,1,.62-11.33l67.19-61.14a8.12,8.12,0,0,0,.17-11.81L356,233.21a8.13,8.13,0,0,1-.3-11.35,7.81,7.81,0,0,1,11.16-.31l80,77a8.11,8.11,0,0,1,2.46,5.94h0A8.09,8.09,0,0,1,446.66,310.41Z"/><path class="cls-1" d="M312.74,229.69a23.87,23.87,0,0,0-11-14.61h0a23.49,23.49,0,0,0-32.33,8.85l-80,141.25a24.33,24.33,0,0,0,8.7,32.88,23.39,23.39,0,0,0,11.8,3.21,23.68,23.68,0,0,0,20.53-12.07l80-141.25A24.28,24.28,0,0,0,312.74,229.69Zm-16,10.26-80,141.25a7.9,7.9,0,0,1-6.85,4,7.67,7.67,0,0,1-3.92-1.07,8.11,8.11,0,0,1-2.9-11l80-141.25a7.87,7.87,0,0,1,6.85-4,7.74,7.74,0,0,1,3.92,1.07,8,8,0,0,1,3.68,4.87A8.09,8.09,0,0,1,296.72,240Z"/></g></g></svg>