<?xml version="1.0" encoding="utf-8"?>
<!-- Generator: Adobe Illustrator 21.0.2, SVG Export Plug-In . SVG Version: 6.00 Build 0)  -->
<svg version="1.1" xmlns="http://www.w3.org/2000/svg" xmlns:xlink="http://www.w3.org/1999/xlink" x="0px" y="0px"
	 viewBox="0 0 512 512" style="enable-background:new 0 0 512 512;" xml:space="preserve">
<style type="text/css">
	.st0{fill:#777777;}
	.st1{fill:#FFAD40;}
</style>
<g id="Layer_3">
</g>
<g id="Layer_1">
	<g>
		<g>
			<g>
				<path class="st0" d="M-96.7-544h-488.2c-4.4,0-7.9,3.6-7.9,8v102.7V-48c0,4.4,3.5,8,7.9,8h488.2c4.4,0,7.9-3.6,7.9-8v-385.2
					V-536C-88.8-540.4-92.3-544-96.7-544z M-104.6-56.1H-577v-369.2h472.4L-104.6-56.1L-104.6-56.1z M-104.6-441.3H-577v-86.7h472.4
					L-104.6-441.3L-104.6-441.3z"/>
			</g>
		</g>
		<g>
			<g>
				<g>
					<path class="st0" d="M-268-509.8h-92.6c-4.4,0-7.9,3.6-7.9,8c0,4.4,3.5,8,7.9,8h92.6c4.4,0,7.9-3.6,7.9-8
						C-260.1-506.2-263.7-509.8-268-509.8z"/>
				</g>
			</g>
			<g>
				<g>
					<path class="st0" d="M-348.7-509.8h-92.6c-4.4,0-7.9,3.6-7.9,8c0,4.4,3.5,8,7.9,8h92.6c4.4,0,7.9-3.6,7.9-8
						C-340.8-506.2-344.3-509.8-348.7-509.8z"/>
				</g>
			</g>
			<g>
				<g>
					<path class="st0" d="M-175.6-509.8h-92.6c-4.4,0-7.9,3.6-7.9,8c0,4.4,3.5,8,7.9,8h92.6c4.4,0,7.9-3.6,7.9-8
						C-167.7-506.2-171.2-509.8-175.6-509.8z"/>
				</g>
			</g>
		</g>
		<g>
			<g>
				<path class="st0" d="M-130.3-509.8h-16.8c-4.4,0-7.9,3.6-7.9,8c0,4.4,3.5,8,7.9,8h16.8c4.4,0,7.9-3.6,7.9-8
					C-122.4-506.2-126-509.8-130.3-509.8z"/>
			</g>
		</g>
		<g>
			<g>
				<path class="st0" d="M-517.5-518.3c-18.3,0-33.1,15.1-33.1,33.7s14.9,33.7,33.1,33.7c18.3,0,33.1-15.1,33.1-33.7
					S-499.3-518.3-517.5-518.3z M-517.5-467c-9.6,0-17.4-7.9-17.4-17.7s7.8-17.7,17.4-17.7c9.6,0,17.4,7.9,17.4,17.7
					S-508-467-517.5-467z"/>
			</g>
		</g>
		<g>
			<g>
				<path class="st0" d="M-426.5-316c0.2-6.4-2.1-12.5-6.5-17.2s-10.2-7.3-16.5-7.5c-6.3-0.2-12.3,2.2-16.9,6.6l-80,77
					c-4.8,4.6-7.5,11.1-7.4,17.8c0.1,6.7,3,13.1,7.9,17.6l80,72.8c4.3,4,10,6.1,15.8,6.1c0,0,0,0,0,0c6.7,0,13.2-2.9,17.6-8
					c8.7-9.9,7.9-25.1-1.9-34l-60.8-55.3l61.3-59.1C-429.3-303.6-426.7-309.5-426.5-316z M-444.8-310.8l-67.5,65.1
					c-1.6,1.5-2.5,3.7-2.5,5.9c0,2.2,1,4.4,2.6,5.9l67.2,61.1c3.2,3,3.5,8,0.6,11.3c-1.5,1.7-3.6,2.7-5.9,2.7c-1.9,0-3.8-0.7-5.3-2
					l-80-72.8c-1.6-1.5-2.6-3.6-2.6-5.9c0-2.2,0.9-4.4,2.5-5.9l80-77c1.5-1.4,3.4-2.2,5.4-2.2c0.1,0,0.1,0,0.2,0
					c2.1,0.1,4.1,0.9,5.5,2.5c1.5,1.6,2.2,3.6,2.2,5.7C-442.4-314.3-443.2-312.3-444.8-310.8z"/>
			</g>
		</g>
		<g>
			<g>
				<path class="st0" d="M-135.1-257l-80-77c-9.5-9.1-24.5-8.7-33.5,0.9c-9,9.6-8.6,24.9,0.9,34l61.3,59.1l-60.8,55.3
					c-9.7,8.9-10.6,24.1-1.9,34c4.5,5.1,10.9,8,17.6,8c0,0,0,0,0,0c5.8,0,11.4-2.2,15.8-6.1l80-72.8c4.9-4.5,7.8-10.9,7.9-17.6
					C-127.6-245.9-130.3-252.4-135.1-257z M-146.1-233.6l-80,72.8c-1.4,1.3-3.3,2-5.3,2h0c-2.3,0-4.4-1-5.9-2.7
					c-2.9-3.3-2.6-8.4,0.6-11.3l67.2-61.1c1.6-1.5,2.6-3.6,2.6-5.9c0-2.2-0.9-4.4-2.5-5.9l-67.5-65.1c-3.2-3-3.3-8.1-0.3-11.3
					c1.5-1.7,3.6-2.5,5.7-2.5c1.9,0,3.9,0.7,5.4,2.2l80,77c1.6,1.5,2.5,3.7,2.5,5.9v0h0C-143.5-237.2-144.5-235.1-146.1-233.6z"/>
			</g>
		</g>
		<g>
			<g>
				<path class="st0" d="M-280-314.3c-1.6-6.2-5.6-11.4-11-14.6c0,0,0,0,0,0c-11.3-6.6-25.8-2.6-32.3,8.9l-80,141.2
					c-6.5,11.5-2.6,26.3,8.7,32.9c3.6,2.1,7.7,3.2,11.8,3.2c8.5,0,16.3-4.6,20.5-12.1l80-141.2C-279.2-301.6-278.4-308.1-280-314.3z
					 M-296.1-304l-80,141.2c-1.4,2.5-4,4-6.9,4c-1.4,0-2.7-0.4-3.9-1.1c-3.8-2.2-5.1-7.1-2.9-11l80-141.2c1.5-2.6,4.1-4,6.9-4
					c1.3,0,2.7,0.3,3.9,1.1c1.8,1.1,3.1,2.8,3.7,4.9C-294.7-308.1-295-305.9-296.1-304z"/>
			</g>
		</g>
	</g>
	<g>
		<g>
			<path class="st1" d="M-731.9-544h-488.2c-4.4,0-7.9,3.6-7.9,8v102.7V-48c0,4.4,3.5,8,7.9,8h488.2c4.4,0,7.9-3.6,7.9-8v-385.2
				V-536C-724-540.4-727.5-544-731.9-544z M-739.8-56.1h-472.4v-369.2h472.4L-739.8-56.1L-739.8-56.1z M-739.8-441.3h-472.4v-86.7
				h472.4L-739.8-441.3L-739.8-441.3z"/>
		</g>
	</g>
	<g>
		<g>
			<g>
				<path class="st1" d="M-903.3-509.8h-92.6c-4.4,0-7.9,3.6-7.9,8c0,4.4,3.5,8,7.9,8h92.6c4.4,0,7.9-3.6,7.9-8
					C-895.4-506.2-898.9-509.8-903.3-509.8z"/>
			</g>
		</g>
		<g>
			<g>
				<path class="st1" d="M-983.9-509.8h-92.6c-4.4,0-7.9,3.6-7.9,8c0,4.4,3.5,8,7.9,8h92.6c4.4,0,7.9-3.6,7.9-8
					C-976-506.2-979.5-509.8-983.9-509.8z"/>
			</g>
		</g>
		<g>
			<g>
				<path class="st1" d="M-810.8-509.8h-92.6c-4.4,0-7.9,3.6-7.9,8c0,4.4,3.5,8,7.9,8h92.6c4.4,0,7.9-3.6,7.9-8
					C-802.9-506.2-806.4-509.8-810.8-509.8z"/>
			</g>
		</g>
	</g>
	<g>
		<g>
			<path class="st1" d="M-765.6-509.8h-16.8c-4.4,0-7.9,3.6-7.9,8c0,4.4,3.5,8,7.9,8h16.8c4.4,0,7.9-3.6,7.9-8
				C-757.7-506.2-761.2-509.8-765.6-509.8z"/>
		</g>
	</g>
	<g>
		<g>
			<path class="st1" d="M-1152.8-518.3c-18.3,0-33.1,15.1-33.1,33.7s14.9,33.7,33.1,33.7s33.1-15.1,33.1-33.7
				S-1134.5-518.3-1152.8-518.3z M-1152.8-467c-9.6,0-17.4-7.9-17.4-17.7s7.8-17.7,17.4-17.7s17.4,7.9,17.4,17.7
				S-1143.2-467-1152.8-467z"/>
		</g>
	</g>
	<g>
		<g>
			<path class="st1" d="M-1061.8-316c0.2-6.4-2.1-12.5-6.5-17.2s-10.2-7.3-16.5-7.5c-6.3-0.2-12.3,2.2-16.9,6.6l-80,77
				c-4.8,4.6-7.5,11.1-7.4,17.8s3,13.1,7.9,17.6l80,72.8c4.3,4,10,6.1,15.8,6.1c0,0,0,0,0,0c6.7,0,13.2-2.9,17.6-8
				c8.7-9.9,7.9-25.1-1.9-34l-60.8-55.3l61.3-59.1C-1064.6-303.6-1061.9-309.5-1061.8-316z M-1080-310.8l-67.5,65.1
				c-1.6,1.5-2.5,3.7-2.5,5.9c0,2.2,1,4.4,2.6,5.9l67.2,61.1c3.2,3,3.5,8,0.6,11.3c-1.5,1.7-3.6,2.7-5.9,2.7c-1.9,0-3.8-0.7-5.3-2
				l-80-72.8c-1.6-1.5-2.6-3.6-2.6-5.9c0-2.2,0.9-4.4,2.5-5.9l80-77c1.5-1.4,3.4-2.2,5.4-2.2c0.1,0,0.1,0,0.2,0
				c2.1,0.1,4.1,0.9,5.5,2.5c1.5,1.6,2.2,3.6,2.2,5.7C-1077.6-314.3-1078.5-312.3-1080-310.8z"/>
		</g>
	</g>
	<g>
		<g>
			<path class="st1" d="M-770.3-257l-80-77c-9.5-9.1-24.5-8.7-33.5,0.9c-9,9.6-8.6,24.9,0.9,34l61.3,59.1l-60.8,55.3
				c-9.7,8.9-10.6,24.1-1.9,34c4.5,5.1,10.9,8,17.6,8c0,0,0,0,0,0c5.8,0,11.4-2.2,15.8-6.1l80-72.8c4.9-4.5,7.8-10.9,7.9-17.6
				C-762.8-245.9-765.5-252.4-770.3-257z M-781.3-233.6l-80,72.8c-1.4,1.3-3.3,2-5.3,2h0c-2.3,0-4.4-1-5.9-2.7
				c-2.9-3.3-2.6-8.4,0.6-11.3l67.2-61.1c1.6-1.5,2.6-3.6,2.6-5.9c0-2.2-0.9-4.4-2.5-5.9l-67.5-65.1c-3.2-3-3.3-8.1-0.3-11.3
				c1.5-1.7,3.6-2.5,5.7-2.5c1.9,0,3.9,0.7,5.4,2.2l80,77c1.6,1.5,2.5,3.7,2.5,5.9v0h0C-778.7-237.2-779.7-235.1-781.3-233.6z"/>
		</g>
	</g>
	<g>
		<g>
			<path class="st1" d="M-915.3-314.3c-1.6-6.2-5.6-11.4-11-14.6c0,0,0,0,0,0c-11.3-6.6-25.8-2.6-32.3,8.9l-80,141.2
				c-6.5,11.5-2.6,26.3,8.7,32.9c3.6,2.1,7.7,3.2,11.8,3.2c8.5,0,16.3-4.6,20.5-12.1l80-141.2C-914.5-301.6-913.6-308.1-915.3-314.3
				z M-931.3-304l-80,141.2c-1.4,2.5-4,4-6.9,4c-1.4,0-2.7-0.4-3.9-1.1c-3.8-2.2-5.1-7.1-2.9-11l80-141.2c1.5-2.6,4.1-4,6.9-4
				c1.3,0,2.7,0.3,3.9,1.1c1.8,1.1,3.1,2.8,3.7,4.9C-930-308.1-930.2-305.9-931.3-304z"/>
		</g>
	</g>
</g>
<g id="Layer_2">
	<g>
		<g>
			<path class="st0" d="M-701.1,191.6v504h259.5l118.7-119v-385H-701.1z M-681,213.1h336.8v348.5h-101.7c-6.4,0-10.6,5.3-10.6,10.7
				v101.8H-681L-681,213.1L-681,213.1z M-435.2,659.1v-77.2h76.3L-435.2,659.1z"/>
			<g>
				<rect x="-638.9" y="249.2" class="st0" width="253.6" height="18"/>
				<rect x="-638.9" y="304.5" class="st0" width="253.6" height="18"/>
				<rect x="-638.9" y="359.7" class="st0" width="253.6" height="18"/>
				<rect x="-638.9" y="415" class="st0" width="253.6" height="18"/>
				<rect x="-638.9" y="470.2" class="st0" width="253.6" height="18"/>
				<rect x="-638.9" y="525.5" class="st0" width="253.6" height="18"/>
				<rect x="-638.9" y="580.7" class="st0" width="197.2" height="18"/>
			</g>
		</g>
		<g>
			<g>
				<path class="st0" d="M-240.3,191.6l-28.4,0c-4,0-7.3,3.3-7.3,7.4V242h-4c-4,0-7.3,3.3-7.3,7.4l0,336.1
					c0,21.1,4.3,41.5,12.8,60.7l11.5,25.9c0.3,0.7,0.7,1.4,1.3,1.9l0,14.1c0,4.1,3.3,7.4,7.3,7.4c2,0,3.8-0.8,5.2-2.2
					c1.3-1.3,2.1-3.2,2.1-5.2v-14.1c0.5-0.6,0.9-1.2,1.3-1.9l11.5-25.9c8.5-19.2,12.8-39.7,12.8-60.7V291.2
					c5.2,3.3,9.9,13.3,9.9,25.9v88.6c0,4.1,3.3,7.4,7.3,7.4c2,0,3.8-0.8,5.2-2.2c1.3-1.3,2.1-3.2,2.1-5.2v-88.6
					c0-10.5-2.6-20.6-7.2-28.2c-4.4-7.3-10.6-12-17.3-13.3v-26.2c0-4.1-3.3-7.4-7.3-7.4l-4,0V199
					C-233,194.9-236.2,191.6-240.3,191.6z M-236.3,585.5c0,19-3.9,37.4-11.5,54.7l-6.7,15.1l-6.7-15.1
					c-7.7-17.3-11.5-35.7-11.5-54.7l0-11.3h36.5V585.5z M-236.3,559.4h-36.5V256.8l36.5,0L-236.3,559.4z M-247.6,242h-13.8v-35.7
					h13.8L-247.6,242z"/>
			</g>
		</g>
	</g>
	<g>
		<g>
			<path class="st1" d="M-658.5,849.4v504H-399l118.7-119v-385H-658.5z M-638.4,870.9h336.8v348.5h-101.7c-6.4,0-10.6,5.3-10.6,10.7
				v101.8h-224.6V870.9L-638.4,870.9z M-392.6,1317v-77.2h76.3L-392.6,1317z"/>
			<g>
				<rect x="-596.2" y="907.1" class="st1" width="253.6" height="18"/>
				<rect x="-596.2" y="962.3" class="st1" width="253.6" height="18"/>
				<rect x="-596.2" y="1017.6" class="st1" width="253.6" height="18"/>
				<rect x="-596.2" y="1072.8" class="st1" width="253.6" height="18"/>
				<rect x="-596.2" y="1128.1" class="st1" width="253.6" height="18"/>
				<rect x="-596.2" y="1183.3" class="st1" width="253.6" height="18"/>
				<rect x="-596.2" y="1238.6" class="st1" width="197.2" height="18"/>
			</g>
		</g>
		<g>
			<g>
				<path class="st1" d="M-197.7,849.4l-28.4,0c-4,0-7.3,3.3-7.3,7.4v43.1h-4c-4,0-7.3,3.3-7.3,7.4l0,336.1
					c0,21.1,4.3,41.5,12.8,60.7l11.5,25.9c0.3,0.7,0.7,1.4,1.3,1.9l0,14.1c0,4.1,3.3,7.4,7.3,7.4c2,0,3.8-0.8,5.2-2.2
					c1.3-1.3,2.1-3.2,2.1-5.2v-14.1c0.5-0.6,0.9-1.2,1.3-1.9l11.5-25.9c8.5-19.2,12.8-39.7,12.8-60.7V949c5.2,3.3,9.9,13.3,9.9,25.9
					v88.6c0,4.1,3.3,7.4,7.3,7.4c2,0,3.8-0.8,5.2-2.2c1.3-1.3,2.1-3.2,2.1-5.2v-88.6c0-10.5-2.6-20.6-7.2-28.2
					c-4.4-7.3-10.6-12-17.3-13.3v-26.2c0-4.1-3.3-7.4-7.3-7.4h-4v-43.1C-190.4,852.7-193.6,849.4-197.7,849.4z M-193.6,1243.4
					c0,19-3.9,37.4-11.5,54.7l-6.7,15.1l-6.7-15.1c-7.7-17.3-11.5-35.7-11.5-54.7l0-11.3h36.5V1243.4z M-193.6,1217.3h-36.5l0-302.6
					l36.5,0L-193.6,1217.3z M-205,899.9h-13.8v-35.7h13.8V899.9z"/>
			</g>
		</g>
	</g>
</g>
</svg>
