<svg id="icons" xmlns="http://www.w3.org/2000/svg" viewBox="0 0 112.2 112.2"><defs><style>.cls-1{fill:#777;}</style></defs><title>codepen</title><g id="codepen"><polygon class="cls-1" points="27.69 51.22 27.69 61.09 35.07 56.16 27.69 51.22"/><polygon class="cls-1" points="40.38 59.72 30.05 66.63 53.17 82.04 53.17 68.27 40.38 59.71 40.38 59.72"/><polygon class="cls-1" points="53.17 44.05 53.17 30.29 30.05 45.7 40.38 52.61 53.17 44.05"/><polygon class="cls-1" points="71.87 52.59 82.2 45.68 59.08 30.27 59.08 44.05 71.87 52.61 71.87 52.59"/><polygon class="cls-1" points="56.13 49.18 45.69 56.16 56.13 63.13 66.56 56.16 56.13 49.18"/><polygon class="cls-1" points="59.07 68.27 59.07 68.31 59.07 82.04 82.2 66.63 71.86 59.72 59.07 68.27"/><path class="cls-1" d="M56.1,0a56.1,56.1,0,1,0,56.1,56.1A56.1,56.1,0,0,0,56.1,0ZM90.33,45.3a1.19,1.19,0,0,1,0,.39V67.15l-.09.21,0,.13-.09.21,0,.15-.09.2-.09.14-.13.17-.1.13-.15.16-.13.11-.17.13-.13.09,0,0L57.66,89.85a2.93,2.93,0,0,1-1.63.52,2.78,2.78,0,0,1-1.63-.47L23,68.94l0,0-.13-.09-.17-.13s0,0-.09-.09l-.13-.13-.09-.13s-.09-.13-.13-.17L22.17,68a.33.33,0,0,1-.09-.17L22,67.73a1.39,1.39,0,0,1-.08-.21l0-.14a1.17,1.17,0,0,1-.06-.25l0-.13a2.92,2.92,0,0,1,0-.39V45.68a1.36,1.36,0,0,1,0-.39v-.13a.54.54,0,0,1,0-.26l0-.13c0-.09,0-.17.09-.21l0-.17.13-.17s0-.09.09-.13l.13-.17.1-.13.15-.16.11-.12.17-.14.13-.1,0,0,31.41-20.9a2.93,2.93,0,0,1,3.26,0l31.33,21,0,0,.13.09.17.13.13.09.17.13.13.13.13.17.09.14.1.19a1.49,1.49,0,0,1,.06.15,1.87,1.87,0,0,1,.09.21l0,.14c0,.08,0,.16.05.25h-.12Z" transform="translate(0 0)"/><polygon class="cls-1" points="84.56 61.09 84.56 51.22 77.18 56.16 84.56 61.09"/></g></svg>