<svg id="icons" xmlns="http://www.w3.org/2000/svg" viewBox="0 0 112.2 112.25"><defs><style>.cls-1{fill:none;}.cls-2{fill:#777;}</style></defs><title>github</title><g id="github"><circle class="cls-1" cx="56.1" cy="56.16" r="56.1"/><path class="cls-2" d="M56.1,0A56,56,0,0,0,38.36,109.15c2.8.53,3.84-1.2,3.84-2.7,0-1.33,0-4.85-.07-9.52-15.61,3.38-18.9-7.51-18.9-7.51C20.67,83,17,81.23,17,81.23c-5.08-3.47.39-3.4.39-3.4C23,78.22,26,83.6,26,83.6c5,8.56,13.13,6.09,16.34,4.66a11.93,11.93,0,0,1,3.56-7.49c-12.46-1.4-25.55-6.22-25.55-27.68a21.61,21.61,0,0,1,5.77-15c-.63-1.41-2.52-7.11.49-14.82,0,0,4.7-1.51,15.43,5.74a53,53,0,0,1,28,0C80.7,21.72,85.4,23.23,85.4,23.23c3,7.72,1.12,13.41.56,14.82a21.69,21.69,0,0,1,5.75,15c0,21.52-13.11,26.26-25.59,27.64,2,1.68,3.79,5.11,3.79,10.36,0,7.49-.07,13.51-.07,15.33,0,1.47,1,3.22,3.86,2.66A55.93,55.93,0,0,0,56.1,0" transform="translate(0 0)"/></g></svg>