<?xml version="1.0" encoding="utf-8"?>
<!-- Generator: Adobe Illustrator 21.0.2, SVG Export Plug-In . SVG Version: 6.00 Build 0)  -->
<svg version="1.1" id="icons" xmlns="http://www.w3.org/2000/svg" xmlns:xlink="http://www.w3.org/1999/xlink" x="0px" y="0px"
	 viewBox="0 0 112.2 112.2" style="enable-background:new 0 0 112.2 112.2;" xml:space="preserve">
<style type="text/css">
	.st0{display:none;}
	.st1{display:inline;fill:#777777;}
	.st2{display:none;fill:#777777;}
	.st3{fill:none;}
	.st4{fill:#777777;}
	.st5{display:inline;}
</style>
<g class="st0">
	<path class="st1" d="M62.1,49.3v-0.1C62.1,49.2,62,49.2,62.1,49.3L62.1,49.3z"/>
	<path class="st1" d="M56.1,0C25.1,0,0,25.1,0,56.1s25.1,56.1,56.1,56.1c31,0,56.1-25.1,56.1-56.1S87.1,0,56.1,0z M41.3,83.7H27.9
		V43.4h13.4V83.7z M34.6,37.9L34.6,37.9c-4.6,0-7.5-3.1-7.5-7c0-4,3-7,7.6-7c4.6,0,7.4,3,7.5,7C42.2,34.8,39.2,37.9,34.6,37.9z
		 M89.6,83.7H76.2V62.2c0-5.4-1.9-9.1-6.8-9.1c-3.7,0-5.9,2.5-6.9,4.9c-0.4,0.9-0.4,2.1-0.4,3.3v22.5H48.7c0,0,0.2-36.5,0-40.3h13.4
		v5.7c1.8-2.7,5-6.7,12.1-6.7c8.8,0,15.4,5.8,15.4,18.1V83.7z"/>
</g>
<path class="st2" d="M56.1,0C25.1,0,0,25.1,0,56.1s25.1,56.1,56.1,56.1c31,0,56.1-25.1,56.1-56.1S87.1,0,56.1,0z M83.8,47.3
	c0,0.6,0,1.2,0,1.7c0,17.7-13.5,38.2-38.2,38.2c-7.6,0-14.6-2.2-20.6-6c1,0.1,2.1,0.2,3.2,0.2c6.3,0,12.1-2.1,16.7-5.7
	c-5.9-0.1-10.8-4-12.5-9.3c0.8,0.2,1.7,0.2,2.5,0.2c1.2,0,2.4-0.2,3.5-0.5c-6.1-1.2-10.8-6.7-10.8-13.1c0-0.1,0-0.1,0-0.2
	c1.8,1,3.9,1.6,6.1,1.7c-3.6-2.4-6-6.5-6-11.2c0-2.5,0.7-4.8,1.8-6.7c6.6,8.1,16.5,13.5,27.6,14c-0.2-1-0.3-2-0.3-3.1
	c0-7.4,6-13.4,13.4-13.4c3.9,0,7.3,1.6,9.8,4.2c3.1-0.6,5.9-1.7,8.5-3.3c-1,3.1-3.1,5.8-5.9,7.4c2.7-0.3,5.3-1,7.7-2.1
	C88.7,43,86.4,45.4,83.8,47.3z"/>
<g id="github">
	<circle class="st3" cx="56.1" cy="56.2" r="56.1"/>
	<path class="st4" d="M56.1,0C25.1,0,0,25.1,0,56c0,24.8,16.1,45.7,38.4,53.1c2.8,0.5,3.8-1.2,3.8-2.7c0-1.3,0-4.9-0.1-9.5
		c-15.6,3.4-18.9-7.5-18.9-7.5C20.7,83,17,81.2,17,81.2c-5.1-3.5,0.4-3.4,0.4-3.4c5.6,0.4,8.6,5.8,8.6,5.8c5,8.6,13.1,6.1,16.3,4.7
		c0.5-3.6,1.9-6.1,3.6-7.5c-12.5-1.4-25.6-6.2-25.6-27.7c0-6.1,2.2-11.1,5.8-15c-0.6-1.4-2.5-7.1,0.5-14.8c0,0,4.7-1.5,15.4,5.7
		c4.5-1.2,9.3-1.9,14-1.9c4.8,0,9.5,0.6,14,1.9c10.7-7.2,15.4-5.7,15.4-5.7c3,7.7,1.1,13.4,0.6,14.8c3.6,3.9,5.8,8.9,5.8,15
		c0,21.5-13.1,26.3-25.6,27.6c2,1.7,3.8,5.1,3.8,10.4c0,7.5-0.1,13.5-0.1,15.3c0,1.5,1,3.2,3.9,2.7c22.4-7.3,38.5-28.3,38.5-53.1
		C112.2,25.1,87.1,0,56.1,0"/>
</g>
<g id="codepen" class="st0">
	<g class="st5">
		<polygon class="st4" points="27.7,51.2 27.7,61.1 35.1,56.2 		"/>
		<polygon class="st4" points="40.4,59.7 30.1,66.6 53.2,82 53.2,68.3 40.4,59.7 		"/>
		<polygon class="st4" points="53.2,44 53.2,30.3 30.1,45.7 40.4,52.6 		"/>
		<polygon class="st4" points="71.9,52.6 82.2,45.7 59.1,30.3 59.1,44 71.9,52.6 		"/>
		<polygon class="st4" points="56.1,49.2 45.7,56.2 56.1,63.1 66.6,56.2 		"/>
		<polygon class="st4" points="59.1,68.3 59.1,68.3 59.1,82 82.2,66.6 71.9,59.7 		"/>
		<path class="st4" d="M56.1,0C25.1,0,0,25.1,0,56.1c0,31,25.1,56.1,56.1,56.1c31,0,56.1-25.1,56.1-56.1C112.2,25.1,87.1,0,56.1,0z
			 M90.3,45.3c0,0.1,0,0.3,0,0.4v21.5l-0.1,0.2l0,0.1l-0.1,0.2l0,0.2L90,68.1l-0.1,0.1l-0.1,0.2l-0.1,0.1l-0.2,0.2l-0.1,0.1
			l-0.2,0.1L89.1,69l0,0L57.7,89.8c-0.5,0.3-1.1,0.5-1.6,0.5c-0.6,0-1.2-0.1-1.6-0.5L23,68.9l0,0l-0.1-0.1l-0.2-0.1c0,0,0,0-0.1-0.1
			l-0.1-0.1l-0.1-0.1c0,0-0.1-0.1-0.1-0.2L22.2,68c0,0-0.1-0.1-0.1-0.2L22,67.7c0-0.1-0.1-0.1-0.1-0.2l0-0.1c0-0.1,0-0.2-0.1-0.2
			l0-0.1c0-0.1,0-0.3,0-0.4V45.7c0-0.1,0-0.3,0-0.4v-0.1c0-0.1,0-0.2,0-0.3l0-0.1c0-0.1,0-0.2,0.1-0.2l0-0.2l0.1-0.2
			c0,0,0-0.1,0.1-0.1l0.1-0.2l0.1-0.1l0.1-0.2l0.1-0.1l0.2-0.1l0.1-0.1l0,0l31.4-20.9c1-0.7,2.3-0.7,3.3,0l31.3,21l0,0l0.1,0.1
			l0.2,0.1l0.1,0.1l0.2,0.1l0.1,0.1l0.1,0.2l0.1,0.1l0.1,0.2c0,0,0,0.1,0.1,0.1c0,0.1,0.1,0.1,0.1,0.2l0,0.1c0,0.1,0,0.2,0.1,0.2
			l-0.1,0L90.3,45.3z"/>
		<polygon class="st4" points="84.6,61.1 84.6,51.2 77.2,56.2 		"/>
	</g>
</g>
</svg>
