<svg xmlns="http://www.w3.org/2000/svg" viewBox="0 0 1982.61 1070.75"><defs><style>.cls-1{fill:#ffb636;}</style></defs><title>Asset 4</title><g id="Layer_2" data-name="Layer 2"><g id="Layer_5" data-name="Layer 5"><path class="cls-1" d="M791.2,804.48q-2.39-24-12-54l-1.2-1.2a3.52,3.52,0,0,0-1.2-2.39q1-20.39,1-39.61t1-36q2.39-106.78-4.81-211.8t-9.61-211.8q-1.22-7.2-7.22-7.2a26.42,26.42,0,0,0-12.62,3.61,87.65,87.65,0,0,0-12.62,8.39c-4,3.2-6.81,5.61-8.41,7.2a3.45,3.45,0,0,1-2.41,1.2l-1.2,1.2a175.18,175.18,0,0,1-9.61-22.81q-12-2.39-25.25,4.81a107.93,107.93,0,0,0-24.64,18.59,123.51,123.51,0,0,0-19.2,24.61q-7.8,13.2-9,24l-1.2,1.2a2.44,2.44,0,0,0,.59,1.81,2.43,2.43,0,0,1,.61,1.8q9.61,54,16.2,109.2t11.41,110.39q-8.81,80.41-11.2,161.41a1066.61,1066.61,0,0,0,7.2,160.19,467.43,467.43,0,0,1-12.59,55.22q-7.8,26.37-23.41,39.59a1.05,1.05,0,0,0-1.2,1.19Q591,949.66,567,930.48a316.48,316.48,0,0,0-51.59-33.59,66.37,66.37,0,0,0-10.81-4.2q-6-1.8-12-4.2-7.2-9.61-12.59-16.19t-12-6q-6.61.59-17.41,9t-28.8,27.59a210.52,210.52,0,0,0-15.59,17.39,48,48,0,0,0-9.61,21q-12,14.39-16.8,29.41a32,32,0,0,0,3.61,28.2q14.39,24,39.59,41.41t51.59,24.59q30,8.39,57,4.8a171,171,0,0,0,51-15,231,231,0,0,0,46.2-29.41,359.51,359.51,0,0,0,41.52-39.59l1.56-1.24c2.5-13.48,13.62-21.76,22.94-31.09v0c0,.08.06-1.24.06-1.4a4.87,4.87,0,0,1,4.78-4.78,3.94,3.94,0,0,1,.76,0c.62-.77,1.21-1.55,1.78-2.35a4.91,4.91,0,0,1,3-2c4.29-7,8.28-14.14,13.79-20.27,3.33-3.71,8.38,0,8,4a4.84,4.84,0,0,1,1,.39,4.06,4.06,0,0,1,.93-.65,4.66,4.66,0,0,1,.77-1.08l.67-.67a4.9,4.9,0,0,1,3.14-1.37,14.94,14.94,0,0,1,2.86-4.63,4.85,4.85,0,0,1,6.75,0,4.18,4.18,0,0,1,1.24,2.2,260.49,260.49,0,0,0,24-28.66q14.48-20.41,19.89-42A132.83,132.83,0,0,0,791.2,804.48Z"/><path class="cls-1" d="M755.61,55.09a17.56,17.56,0,0,0-5.39-5.41h-3.61A67,67,0,0,1,749,34.09q1.2-6,3.59-18t-6-15.61q-14.39-2.39-27,7.2a219.47,219.47,0,0,0-22.2,19.2,13.19,13.19,0,0,1,.59-4.2,13,13,0,0,0,.61-4.2L619.4,86.88q-1.2,19.22-4.19,44.41-.38,3.22-.62,6.31a4.44,4.44,0,0,1,3.06-1.12c4.46,0,5.67,5,3.66,7.77a4.3,4.3,0,0,1,1.78,3.68c0,6.9-.61,13.88.5,20.73a5.24,5.24,0,0,1-5.22,6,12.92,12.92,0,0,0,1.51,1.45,5,5,0,0,1,4.43-2.95H631a4.72,4.72,0,0,1,4.36,3,40.13,40.13,0,0,0,3.84-2.22c2.78-1.81,5.55-3.77,8.29-5.84-1-2.29-.28-5.38,2.15-6.48a3.83,3.83,0,0,1,.56-4,41.39,41.39,0,0,0,7.52-16.19c1.29-6,10.5-3.46,9.21,2.54a45.86,45.86,0,0,1-3.83,10.85q1.56-1.49,3.11-3a50.78,50.78,0,0,0,13.19-8.41q7.2-6,13.2-12,9.61-8.39,19.2-18t18-19.2l1.2-1.2q0-1.2,2.39-3.61l-1.19,1.2q7.17-9.59,8.39-12l9-9a125.18,125.18,0,0,1,10.2-9A26.85,26.85,0,0,1,755.61,55.09Z"/><path class="cls-1" d="M1363.39,780.48q-1.22-10.78-3-22.19t-4.2-23.41q-1.2-38.39-7.19-84c0-4,.19-8.19.59-12.59s.59-8.61.59-12.61q10.8-19.2,7.81-44.39a406.62,406.62,0,0,1-3-48,43.06,43.06,0,0,0-.61-7.19q-.61-3.61-1.8-8.41,1.2-34.78,0-69a686.41,686.41,0,0,0-6-69q-2.41-12-13.2-7.2t-24,16.8a80.07,80.07,0,0,0-7.2-8.39c-2.41-2.41-4.8-4.8-7.19-7.2a82.35,82.35,0,0,0-24-10.8q-19.22-26.39-52.81-45.61-26.39-13.17-64.2,2.41a395.25,395.25,0,0,0-71.39,38.41A215.44,215.44,0,0,0,1025,376.68a273.36,273.36,0,0,0-54.59,34.8,357.92,357.92,0,0,0-48,47.41,392.23,392.23,0,0,0-39,55.2,343.18,343.18,0,0,0-36,45,169.63,169.63,0,0,0-22.8,49.8q-4.8,18,2.41,46.8-1.73,5.58-3,11a4.62,4.62,0,0,1,3.08,4.25c.47,9.22-1.36,18.28-1.26,27.48.1,9.38,4,17.82,8.29,26,8.71,16.46,20.31,31.22,32.57,45.16,3.68,4.19-1.57,10.18-5.61,7.73q1.52,1.91,3.09,3.81A301.89,301.89,0,0,0,923,835.68q15.07,11,30.15,14.53a4.26,4.26,0,0,1,3.18-1.06c19.34.88,37-5.39,54.46-12.48a3.59,3.59,0,0,1,1.13-.87,26.11,26.11,0,0,1,5.43-1.82c11.73-4.84,23.48-9.7,35.72-12.66,3.76-.91,6.15,2.39,5.93,5.32q5.23-2.61,10.4-5.37,7.2-2.39,13.8-4.19c4.41-1.2,9-2.61,13.81-4.2q39.3-11.23,74.36-24.56c-1.38-2.47-.83-6.08,2.69-7,14.94-3.91,28.06-12,39.89-21.77a5.1,5.1,0,0,1,7.23.8,4.42,4.42,0,0,1,3.15-1.2,4.32,4.32,0,0,1,4.08,2.46q8.29-4.78,16.19-9.93,2.39,19.22,4.2,37.2,1.71,17.33,4,34.65c2.77-.79,6.28.66,6.28,4.39v56.74c2-3.75,9-3,9,2.26V908.7c1.22.12,2.58.18,4.09.18h3.61a3.39,3.39,0,0,1,2.39-1.2l1.2,1.2a3.39,3.39,0,0,0,1.2,2.39,14.19,14.19,0,0,0,4.1,2.92,3.84,3.84,0,0,1,3.36-4.87c22.1-3.31,34.25-25,44.15-42.8,2.39-4.3,8.15-2.07,8.82,1.74a5.1,5.1,0,0,1,2.09.14c.2-.58.41-1.16.61-1.74a4.62,4.62,0,0,1,3.39-3.16,55.43,55.43,0,0,0,1.44-8.57c.36-4.21,5-5.53,7.72-3.91a86.77,86.77,0,0,0,3.53-11.14c1.06-4.38,1.93-8.83,2.64-13.35a4.53,4.53,0,0,1-4.88-4.61v-11c0-4,4-5.38,6.85-4.18.12-2.74.2-5.49.2-8.27l4.8-4.8A28.21,28.21,0,0,1,1363.39,780.48ZM1181,685.68a509.84,509.84,0,0,1-64.8,21.61,423.05,423.05,0,0,1-60,11.39q-27.61,3-42,.59-14.39-1.17-27-10.78a151.83,151.83,0,0,1-23.39-22.2,223.72,223.72,0,0,1-19.8-27q-9-14.39-16.2-25.2a211.16,211.16,0,0,1-7.2-70.81q15.59-28.78,32.41-49.19,46.78-64.8,94.8-84,16.78-3.61,33-6a225.69,225.69,0,0,1,33-2.41,254.79,254.79,0,0,1,37.19,5.41,400.38,400.38,0,0,1,40.81,11.39,39,39,0,0,1,2.39,14.41,25.11,25.11,0,0,0,3.61,13.2l10.8-9.61a98.24,98.24,0,0,0,5.41,11.41,97.94,97.94,0,0,1,5.39,11.39v13.2a66.41,66.41,0,0,0,1.2,13.2l4.8-3.59a165.31,165.31,0,0,1,1.2,20.39,152.15,152.15,0,0,0,1.2,19.2q2.39,28.8,4.19,57.61t4.2,56.39Q1213.39,672.48,1181,685.68Z"/><path class="cls-1" d="M1030.88,838.64c0,.15-.05.3-.08.46,1.67-.75,3.33-1.55,5-2.35C1034.15,837.36,1032.52,838,1030.88,838.64Z"/><path class="cls-1" d="M1479.61,741.86c0,5.34,2.66,8,8,8h4c6,0,9-2.66,9-8v-5l-5-8Q1479.6,734.86,1479.61,741.86Z"/><path class="cls-1" d="M1491.61,762.86v4c0,5.34,3,8,9,8v-4Q1500.61,763.87,1491.61,762.86Z"/><rect class="cls-1" x="1462.61" y="715.86" width="8" height="9"/><path class="cls-1" d="M1466.61,736.86q0,10-4,17l8,4h9v-8Q1472.6,736.87,1466.61,736.86Z"/><path class="cls-1" d="M1458.61,816.86l16-4v-9h-4Q1458.61,810.87,1458.61,816.86Z"/><rect class="cls-1" x="1399.61" y="757.86" width="8" height="5"/><rect class="cls-1" x="1479.61" y="720.86" width="4" height="8"/><path class="cls-1" d="M1973.61,493.86q-14-63-42-100-182-160-360-185h-9l-8,4q0,5,4,13-4,8-4,13l4,21c-2.67,0-4,1.34-4,4s2.66,4,8,4q0,37,55,67,50,25,121,50l9-4q42.08,17.77,49.18,24.17a20.43,20.43,0,0,1,4.36,3.08c6.83,6.27,7.24,19.47,0,25.65-14.72,12.56-27.42,27.17-41.73,40.16-25.52,23.16-52.54,44.9-83.18,60.92-7.81,4.08-15.76,7.91-23.74,11.64-4,1.86-8.31,3.45-12,5.74-.32.19-.62.42-.92.64-1,1.08-2.28,2-3.35,3-10.24,9.77-20.3,21.94-35,24.54a22.84,22.84,0,0,1-8.47,0c-.37.17-.74.32-1.11.47l-.19.07a17.84,17.84,0,0,1-3.64.94,18.39,18.39,0,0,1-11.41,4.2,17.49,17.49,0,0,1-8.9-2.4q-77.84,49.17-87.82,49.19v8h12l17-13h4v5q-67,40-67,46h17l-13,16,21,5v4h-8v8h4l13-8h8l-4,8v9l8-5h30l8,5q0-7,17-13v4q16,0,16-17l9,5h4c0-3.33-1.34-5-4-5q0-5,33-16h9l-13,16v5h17v8q-7,0-17,8l-8-4q0,9-17,9v8l4,8c-2.67,0-4,1.67-4,5v4h4q13-13,30-13,0-8-13-8v-4h4q13,0,13,8,5,0,54-25v-9l-21,5h-4l8-13q-12,0-12-13l29-12h9v4l-13,21c2.66,0,4,1.34,4,4,6,0,9-2.66,9-8l8,4h8q11-8,42-13c5.33,3.34,9.66,5,13,5q0-10,4-17l-4-8q10,0,29-9,47-38,63-38h8l-4,9v4q21-3,21-13l-4-8q28-21,34-21v8h8q0-8,13-8,17-22,67-67Q1978.6,493.87,1973.61,493.86Zm-490,193c-3.34,0-7.67,1.34-13,4h-4v-4q5,0,13-4h4Zm54-75v8c-4.67,0-7.34-2.66-8-8Zm-8,42h8v4h-8Zm-13-34h9v4h-9Zm38,67q-8,10-8,17h-9q0-10-4-17h4l9,4c0-4.66,2.66-7.33,8-8Zm13-29q0,2-51,37h5l8-4,4,9v4h-12l-9-4-4,8h-8v-4h4q0-19-9-34l17-8h9l-9,12h13v-8c2.66,0,4,1.34,4,4q7,0,38-16Zm54,63h-8v-5h8Zm13-21h-13v-5q0-7,9-8h8Q1634.6,694.87,1634.61,699.86Zm42-46h-9v-5h9Zm12,12v-8h9C1697.61,663.2,1694.61,665.86,1688.61,665.86Zm46-29h-8v-4h8Zm118-38h-9v-4h9Zm21-17h-9v-4h9Zm4-8v-8h8C1885.61,571.2,1882.94,573.86,1877.61,573.86Zm29,0h-8v-4l33-30h4Q1912.6,573.87,1906.61,573.86Z"/><rect class="cls-1" x="1973.61" y="477.86" width="9" height="8"/><rect class="cls-1" x="1525.61" y="762.86" width="4" height="8"/><rect class="cls-1" x="1827.61" y="619.86" width="8" height="8"/><path class="cls-1" d="M1806.61,636.86h12v-9h-4Q1807.6,627.86,1806.61,636.86Z"/><path class="cls-1" d="M487,761.86l-1,1.55a6.57,6.57,0,0,1,2.56-.09,31.28,31.28,0,0,1,4.25,1C491.11,763.5,489.17,762.67,487,761.86Z"/><rect class="cls-1" y="510.86" width="9" height="8"/><path class="cls-1" d="M501.33,758.15l1.67-.21v-4.09h-4V759A6.18,6.18,0,0,1,501.33,758.15Z"/><rect class="cls-1" x="147" y="652.86" width="8" height="8"/><path class="cls-1" d="M356.69,754.32c2,.44,4,.78,5.93,1.05,0-.15-.06-.3-.07-.45,0-.36-.05-.72-.06-1.07H361v-1.69Q358.86,753.28,356.69,754.32Z"/><path class="cls-1" d="M376.07,765.08c-1,.18-2,.29-3.05.38,0,.13,0,.26,0,.39,1.09,0,2.17.05,3.24.13C376.19,765.69,376.12,765.39,376.07,765.08Z"/><path class="cls-1" d="M533,727.86l-13-16h7.92c-9.71-5.91-16.42-14.81-22.54-24.29Q491,678.38,470,665.86v-5h4l17,13h5.71a100.71,100.71,0,0,0-12-15.57Q451.3,640.65,361,581.86c2.67,0,4-1.33,4-4q-69-29-180-135v-4q5-6,50-25l9,4q71-25,121-50,55-30,55-67c5.34,0,8-1.33,8-4s-1.33-4-4-4l4-21q0-5-4-13,4-8,4-13l-8-4h-9q-178,25-360,185-28,37-42,100-5,0-9,17,50,45,67,67,13,0,13,8h8v-8q6,0,34,21l-4,8q0,10,21,13v-4l-4-9h8q16,0,63,38,19,9,29,9l-4,8q4,7,4,17c3.34,0,7.67-1.66,13-5q31,5,42,13h8l8-4c0,5.34,3,8,9,8,0-2.66,1.34-4,4-4l-13-21v-4h9l29,12q0,13-12,13l8,13h-4l-21-5v9q16.08,8.2,27.41,13.71c7.62-3.72,15.49-6.93,22.51-11.76l.08-.05v-5.89h17v-5l-13-16h9q33,11,33,16c-2.66,0-4,1.67-4,5h4l9-5q0,17,16,17v-4q17,6,17,13l8-5h30l8,5v-9l-4-8h8l13,8h4v-8h-8v-4Zm-449-121H76q-6,0-29-34h4l33,30Zm21,0c-5.33,0-8-2.66-8-8h8Zm13,8h-9v-4h9Zm21,17h-9v-4h9Zm117,38h-8v-4h8Zm38,29c-6,0-9-2.66-9-8h9Zm21-12h-9v-5h9Zm46,46H348q0-5-4-13h8q9,1,9,8Zm96-80h9v4h-9Zm-12-8h8c-.66,5.34-3.33,8-8,8Zm0,42h8v4h-8Zm-9,50q0-7-8-17v-4c5.34.67,8,3.34,8,8l9-4h4q-4,7-4,17Zm46,0v4h-8l-4-8-9,4H449v-4l4-9,8,4h5q-51-35-51-37v-4q31,16,38,16c0-2.66,1.34-4,4-4v8h13l-9-12h9l17,8q-9,15-9,34Zm17-17v-4h4q8,4,13,4v4h-4C506.67,721.2,502.34,719.86,499,719.86Z"/><path class="cls-1" d="M168,660.86h-4v9h12Q175,660.86,168,660.86Z"/><path class="cls-1" d="M412.37,688.91c6.83,0,11.72,6.86,16.05,11.31l14.18,14.61,1.82-2.36-28-20.91-1.51,2.59,24.93,16c1.65,1.06,3-1.48,1.51-2.59l-10.58-7.65c-3.55-2.56-9.24-5.21-10.18-9.76l-2.51,1.46,9.24,10.36,2.12-2.12-15.86-12.33L412.16,690a54.85,54.85,0,0,1,21.64,12.93c1.18,1.13,3.38-.38,2.36-1.82a80.77,80.77,0,0,0-8.44-10l-2.12,2.12a59.81,59.81,0,0,1,12.65,14l2.36-1.82a18.4,18.4,0,0,1-4.66-8l-2.2,1.69a24.32,24.32,0,0,1,8.9,7.62l1.69-2.2-5.57-1.74a1.51,1.51,0,0,0-1.46,2.51,74.69,74.69,0,0,0,8.05,7.65c1.48,1.21,3.62-.9,2.12-2.12a74.69,74.69,0,0,1-8.05-7.65L438,705.62l5.57,1.74c1.18.37,2.47-1.13,1.69-2.2a27.57,27.57,0,0,0-10-8.69,1.52,1.52,0,0,0-2.2,1.69,21.74,21.74,0,0,0,5.43,9.36c1.17,1.2,3.3-.37,2.36-1.82a62.4,62.4,0,0,0-13.12-14.63c-1.47-1.19-3.51.72-2.12,2.12a75.9,75.9,0,0,1,8,9.43l2.36-1.82a58.44,58.44,0,0,0-23-13.7c-1.35-.43-2.67,1.57-1.46,2.51l15.86,12.33a1.5,1.5,0,0,0,2.12-2.12l-9.24-10.36c-1.07-1.19-2.79.1-2.51,1.46.82,4,3.94,6,7,8.28q7.54,5.48,15.11,10.93l1.51-2.59-24.93-16c-1.66-1.06-3,1.46-1.51,2.59l28,20.91c1.4,1,3-1.17,1.82-2.36q-9.12-9.39-18.24-18.78c-4-4.07-8.1-8-14.12-8a1.5,1.5,0,0,0,0,3Z"/><path class="cls-1" d="M307.78,683.51a2.46,2.46,0,0,1,3,1.16l.23-1.82-2.86,3.68h2.12a4,4,0,0,1-1.68-4,1.58,1.58,0,0,0-.69-1.69c-2.27-1.53-5.38-.1-6.19,2.43-.92,2.88,1.39,5.62,3.92,6.68,2.27.95,5.67.62,6.11-2.33a4.73,4.73,0,0,0-1-3.25c-.41-.63-2.09-2.26-1.61-3l-2.74-.36a8.77,8.77,0,0,0,7.85,5.66c1.93.11,1.92-2.89,0-3a5.61,5.61,0,0,1-5-3.46,1.52,1.52,0,0,0-2.74-.36c-1.38,2.07.16,3.93,1.34,5.63.87,1.26,1.28,2.49-.94,1.78a3.94,3.94,0,0,1-2.29-1.91c-.45-1.06.39-2.81,1.69-1.94l-.69-1.69a7,7,0,0,0,2.45,6.89,1.52,1.52,0,0,0,2.12,0l2.86-3.68a1.57,1.57,0,0,0,.23-1.82,5.46,5.46,0,0,0-6.42-2.54c-1.84.56-1.06,3.45.8,2.89Z"/><path class="cls-1" d="M245.83,667.66a78.14,78.14,0,0,0,28.64,24.95c3.49,1.77,7.54-1.86,5.47-5.47a139.27,139.27,0,0,0-20.85-27.72c-2.85-2.94-7.62.1-6.69,3.89l1.54,6.23a4.05,4.05,0,0,0,4.92,2.79c11.68-3.23,23.54,2.07,34.46,5.81l16.7,5.72c3.33,1.14,10.41,2.81,10.37,7.3l6-3.45-10.57-5.91c-3.86-2.16-8.3,3.13-4.85,6.28l15.94,14.55c4.23,3.86,8.36,8.63,13.57,11.15a16.72,16.72,0,0,1,5.85,4.08,33.51,33.51,0,0,0,5.94,5.22,32.4,32.4,0,0,0,15.09,5.18c5.11.55,5.07-7.46,0-8a23.4,23.4,0,0,1-13.85-6.43c-1.59-1.54-2.84-3.35-4.62-4.7s-3.79-1.83-5.69-2.92c-4.74-2.71-8.77-7.56-12.8-11.23l-13.76-12.56-4.85,6.28,10.57,5.91a4,4,0,0,0,6-3.45c.09-12.77-18.28-15.71-27.38-18.82-14-4.81-29.23-11.89-44.29-7.72l4.92,2.79-1.54-6.23-6.69,3.89a130.66,130.66,0,0,1,19.6,26.1l5.47-5.47a69.84,69.84,0,0,1-25.77-22.08c-2.94-4.17-9.88-.18-6.91,4Z"/></g></g></svg>